<svg xmlns="http://www.w3.org/2000/svg" xmlns:xlink="http://www.w3.org/1999/xlink" viewBox="0 0 101.27 108.96"><defs><style>.cls-1{fill:none;}.cls-2{isolation:isolate;}.cls-3,.cls-34,.cls-36,.cls-4,.cls-6,.cls-9{fill:#4b5157;}.cls-11,.cls-14,.cls-16,.cls-20,.cls-23,.cls-25,.cls-27,.cls-28,.cls-34,.cls-4,.cls-6{mix-blend-mode:multiply;}.cls-4,.cls-5{opacity:0.6;}.cls-35,.cls-5,.cls-8{fill:#c6ccce;}.cls-6{opacity:0.4;}.cls-7{fill:#899497;}.cls-36,.cls-8{opacity:0.3;}.cls-15,.cls-29,.cls-30,.cls-32,.cls-36,.cls-9{mix-blend-mode:screen;}.cls-10,.cls-11{fill:#2593a6;}.cls-11{opacity:0.7;}.cls-12{clip-path:url(#clip-path);}.cls-13,.cls-14,.cls-15,.cls-32{fill:#ffcbae;}.cls-15{opacity:0.48;}.cls-16,.cls-31{fill:#c29e8a;}.cls-17{fill:#fff;}.cls-18{fill:#654939;}.cls-19{fill:#402c1f;}.cls-21{fill:#d1d3d4;}.cls-22,.cls-23{fill:#eb7c60;}.cls-24,.cls-25{fill:#d46968;}.cls-25{opacity:0.54;}.cls-26,.cls-27,.cls-28,.cls-29{fill:#f69a93;}.cls-28{opacity:0.52;}.cls-33{fill:#808588;}</style><clipPath id="clip-path" transform="translate(-7.43 -2.67)"><circle class="cls-1" cx="58.07" cy="53.3" r="43.21"/></clipPath></defs><g class="cls-2"><g id="Layer_1" data-name="Layer 1"><path class="cls-3" d="M94.49,94a7,7,0,1,1-7-7A7,7,0,0,1,94.49,94Z" transform="translate(-7.43 -2.67)"/><path class="cls-4" d="M88.17,93.56a35.75,35.75,0,0,0,6.28-.28A6.88,6.88,0,0,0,93.21,90C91.47,91.07,89.87,92.35,88.17,93.56Z" transform="translate(-7.43 -2.67)"/><path class="cls-4" d="M87.84,92.91c1.62-1.2,3.14-2.55,4.88-3.59a7,7,0,0,0-2.17-1.64C89.68,89.44,88.57,91.1,87.84,92.91Z" transform="translate(-7.43 -2.67)"/><path class="cls-4" d="M87.74,94.54a8.24,8.24,0,0,1-1.11,0c-1.08,1.54-2.4,2.88-3.4,4.49l-.21.33A7,7,0,0,0,87.5,101a7.27,7.27,0,0,0,2-.29C88.88,98.63,88.25,96.6,87.74,94.54Z" transform="translate(-7.43 -2.67)"/><path class="cls-5" d="M89.92,87.78c-.18-.06-1.15.08-.86.18a6.47,6.47,0,0,1,2.12,1.28,5.84,5.84,0,0,0-3-1.23c-.13,0-.25.07-.09.15q.57.28,1.08.6a2.88,2.88,0,0,0-.72,0c-.09,0-.17.09-.06.14a5,5,0,0,1,1.82,1.24L90,90.07a3.58,3.58,0,0,0-1.18-.27c-.08,0-.27,0-.13.12a8.62,8.62,0,0,1,1.68,1.4l-.18-.1a3.54,3.54,0,0,0-1.7-.8c-.13,0-.35,0-.15.14a4.28,4.28,0,0,1,1.18,1c-.47-.29-1.09-.54-1.38-.26-.09,0-.14,0-.07.1s0,0,0,.06.14.13.27.13a3.62,3.62,0,0,1,1.57,3s0,.09.12.12l-.09.08c-.14.1.27.2.37.14a1.75,1.75,0,0,0,.63-1.29,5,5,0,0,1,.13,1.6c0,.13.35.12.42.07l.17-.18c.09,0,.17,0,.19-.05a3.54,3.54,0,0,0,.11-.44,2.62,2.62,0,0,0,.14-1.22c.12.43.2.88.28,1.32,0,.07,0,.14,0,.22s.12.11.25.1.23,0,.24,0,0-.09,0-.13a2,2,0,0,0,.27-.72A7.83,7.83,0,0,1,93,95.59c0,.13.37.2.43.09C95.17,92.68,92.76,88.74,89.92,87.78Z" transform="translate(-7.43 -2.67)"/><path class="cls-6" d="M84.44,88.3a.37.37,0,0,1,.53.22,8.22,8.22,0,0,1,.14,3.91c-.31,1-1.26,1.8.1,3a3.65,3.65,0,0,0,1.54.93,2.89,2.89,0,0,0,3.52-2c.37-1.47-.49-1.9-1.28-2.82a1.76,1.76,0,0,1-.26-1c-.07-1.16-.19-2.31-.3-3.46a6.91,6.91,0,0,0-7.7,5.22A8.1,8.1,0,0,1,84.44,88.3Z" transform="translate(-7.43 -2.67)"/><path class="cls-6" d="M92,88.6a8.26,8.26,0,0,1,1.32,2.88c.62,2.41.3,4.61-1.62,6.34-2.07,1.88-5.38,2.09-7.91,1.16a5.34,5.34,0,0,1-2.52-2A7,7,0,1,0,92,88.6Z" transform="translate(-7.43 -2.67)"/><path class="cls-7" d="M89.44,93.81a2.09,2.09,0,1,1-2.08-2.08A2.09,2.09,0,0,1,89.44,93.81Z" transform="translate(-7.43 -2.67)"/><path class="cls-8" d="M85,99.79c.13,0,.32-.34.19-.4a8.73,8.73,0,0,1-1.15-.75,2.27,2.27,0,0,0,.74.22l.11.07c.06,0,.14-.06.19-.17s.14-.22.07-.26L85,98.38c-.3-.33-.6-.67-.87-1a2.74,2.74,0,0,0,1.06.63,2.43,2.43,0,0,0,.4.18c.06,0,.12,0,.16-.12A1,1,0,0,0,86,98c.08,0,.3-.29.2-.37A5.12,5.12,0,0,1,85,96.57a1.72,1.72,0,0,0,1.4.3c.11,0,.29-.43.12-.38l-.12,0c0-.07,0-.14,0-.17A3.63,3.63,0,0,1,85,93.25c.09-.11.16-.27.07-.3H85c0-.09-.06-.07-.12,0-.4,0-.58.7-.64,1.25a4.19,4.19,0,0,1-.09-1.56c0-.23-.14-.08-.19,0a3.56,3.56,0,0,0-.42,1.84l0,.2a8.86,8.86,0,0,1-.07-2.18c0-.17-.14,0-.18,0a3.67,3.67,0,0,0-.51,1.11l-.06.17a5.06,5.06,0,0,1,.13-2.19c0-.12-.07-.11-.14,0a3,3,0,0,0-.44.58c0-.4.11-.81.19-1.22,0-.18-.1-.13-.17,0a5.78,5.78,0,0,0-.89,3.14,6.48,6.48,0,0,1,.29-2.45c.1-.29-.61.38-.67.56C80,95,81.59,99.33,85,99.79Z" transform="translate(-7.43 -2.67)"/><path class="cls-9" d="M85.54,94.45c-1.61.39-3.21.81-4.83,1.12a6.81,6.81,0,0,0,1,2.24c1.81-1.26,3.61-2.55,5.54-3.64A15.09,15.09,0,0,0,85.54,94.45Z" transform="translate(-7.43 -2.67)"/><path class="cls-9" d="M91.76,90.89c.49-.3,1-.62,1.44-1a7.16,7.16,0,0,0-.48-.61l-2.31,2c-.62.53-1.2,1.12-1.8,1.68C89.7,92.45,90.75,91.51,91.76,90.89Z" transform="translate(-7.43 -2.67)"/><circle class="cls-10" cx="50.64" cy="50.63" r="43.21"/><path class="cls-10" d="M87.22,94.61a.43.43,0,0,1-.36-.18.44.44,0,0,1,.1-.62A49.75,49.75,0,1,0,16.2,80.17a.45.45,0,0,1-.14.62.44.44,0,0,1-.61-.14,50.63,50.63,0,1,1,72,13.88A.5.5,0,0,1,87.22,94.61Z" transform="translate(-7.43 -2.67)"/><path class="cls-11" d="M58.07,2.67a50.63,50.63,0,0,0-42.62,78,.44.44,0,0,0,.61.14.5.5,0,0,0,.19-.27.45.45,0,0,1-.37-.2A50.12,50.12,0,1,1,87.17,94.06a.44.44,0,0,1-.25.08.7.7,0,0,1-.14,0,.42.42,0,0,0,.08.32.43.43,0,0,0,.36.18.5.5,0,0,0,.26-.08A50.64,50.64,0,0,0,58.07,2.67Z" transform="translate(-7.43 -2.67)"/><g class="cls-12"><path d="M74.31,20.46c-7.92-5.25-17.63-5.1-26.51-2.64a27.78,27.78,0,0,0-6.43,2.85C39.22,22,36.09,25.75,34.3,31.21h0v0c0,.08,0,.16-.07.23-.13.43-.26.86-.38,1.3l-.12.51c-.1.38-.18.77-.26,1.17,0,.16-.07.33-.1.5-.1.56-.19,1.12-.26,1.7a.66.66,0,0,0,0,.14c-.06.54-.11,1.08-.14,1.64,0,.19,0,.37,0,.56,0,.45,0,.9,0,1.36,0,.19,0,.38,0,.57,0,.64,0,1.28.11,1.94.23,2.4,2.65,3.8,1.31,5.91l-.14.2-.07.08-.18.2-.1.12-.24.26-.1.11-.88.92-.12.13-.39.4-.18.19-.39.39-.4.42-.36.37-.4.41-.18.19-.34.36-.19.19-.32.34-.16.17-.4.44-.05.05-.31.34h0a4.83,4.83,0,0,0-.71.93A1.55,1.55,0,0,0,28,57h0A.43.43,0,0,1,28,57l.11.18.09.12.13.17.09.1.16.15.07.07a1.46,1.46,0,0,0,.22.17c1.37.83,2,.52,3.42,1.15a2.25,2.25,0,0,1,.42.24l.11.08a3.92,3.92,0,0,1,.33.27l.06.06a4.12,4.12,0,0,1,.33.4l.06.1a2.09,2.09,0,0,1,.19.36,1.57,1.57,0,0,1,.11.9,11,11,0,0,0-.52,1.51h0a1.6,1.6,0,0,0,0,.31.06.06,0,0,0,0,0,1.18,1.18,0,0,0,.1.3s0,0,0,.05a1.91,1.91,0,0,0,.22.3l0,0a2.13,2.13,0,0,0,.39.31l.16.09.06,0,.14.06.09,0,.16.07.1,0,.16.06.11,0,.18.06.09,0,.24.08.07,0,.15,0h0l.22.06c0,.06-1.15,1.7.26,2.87h0l.17.14.13,0c0,.06,0,.12,0,.18,0,.49,0,1,0,1.46,0,.07,0,.17,0,.29s0,.15,0,.24a1.15,1.15,0,0,1,0,.19,2.11,2.11,0,0,1,0,.26c0,.07,0,.13,0,.2v.07h0c.14,1.64.6,4.33,2.31,5.53h0a2.2,2.2,0,0,0,.26.15,3.14,3.14,0,0,0,.31.18c.12,0,.24.08.37.12l.33.1a4,4,0,0,0,.5,0,3,3,0,0,0,.31,0,4.45,4.45,0,0,0,.92-.1h0c.55-.1,1.67-.39,2.91-.6,2.07-.36,4.48-.54,5.17.61,1.05,1.76,1.36,12.45.4,15.3,0,.06-.06.13-.1.22l-.06.1-.11.19a.71.71,0,0,1-.1.14l-.14.22-.11.17c-1.13,1.63-3.42,4.4-4.06,5.42h0v0l-.13.23a2.21,2.21,0,0,1-.11.22,1.19,1.19,0,0,1-.08.16l-.09.19-.1.19c-.05.09-.09.16-.13.25l-.18.34-.1.19-.23.42-.09.19-.22.41-.15.27-.23.43-.15.29-.25.47c-1.18,2.18-2.54,4.68-3.26,6a30.32,30.32,0,0,0,4.39,1.3,52.24,52.24,0,0,0,10,1.11c3.5.1,7,0,10.54-.19A82,82,0,0,0,75.51,110h0l1.07-.22q3.14-.67,6.21-1.58c-.18-.69-.38-1.37-.59-2a79.3,79.3,0,0,0-6.9-14.47c-1.85-3-3.7-14.9-2.71-17.77.14-.39.29-.75.45-1.1l.07-.15c.16-.33.33-.65.52-1a1,1,0,0,1,.1-.17c.19-.31.38-.6.59-.89l.1-.13q.33-.45.69-.87h0c.24-.28.49-.55.75-.82l.11-.12c.25-.25.5-.51.76-.76l.16-.15.79-.73.18-.17.76-.67.93-.84.11-.1.86-.8.15-.14c.29-.27.57-.55.86-.84l.11-.12c.3-.3.59-.61.88-.94h0c.29-.32.57-.65.85-1l.1-.13c.27-.34.52-.68.77-1l.13-.19q.38-.56.72-1.14a1.62,1.62,0,0,0,.1-.18c.24-.42.48-.85.7-1.31h0a23,23,0,0,0,1.4-3.8C91.62,37.79,85,27.55,74.31,20.46Z" transform="translate(-7.43 -2.67)"/><path class="cls-13" d="M35.38,67.22l.12.06v.17a11.81,11.81,0,0,0,0,1.46c.07,1,.06,8.32,5.37,7.3,1.47-.29,7-1.83,8.08,0s1.36,12.45.4,15.3c-.35,1-4.4,5.8-4.81,6.71s-4,7.55-5.38,10a30.73,30.73,0,0,0,4.39,1.31,52.31,52.31,0,0,0,10,1.1c3.51.1,7,.06,10.54-.19a80.1,80.1,0,0,0,11.32-1.59q3.14-.66,6.21-1.58c-.18-.68-.38-1.37-.59-2a78.26,78.26,0,0,0-6.9-14.46c-1.84-3-3.7-14.9-2.7-17.78,2.63-7.61,11.62-8.93,14.7-20.26,4.32-15.88-2.31-26.11-13-33.21-7.91-5.24-17.63-5.1-26.5-2.64a27.85,27.85,0,0,0-6.44,2.85c-3.45,2.11-9.44,10.54-8.33,22.18.22,2.4,2.64,3.8,1.31,5.91-.55.87-6.43,6.53-6.6,7.21s.6,1.71,1.14,2c1.37.83,2,.52,3.41,1.15.89.39,1.82,1.46,1.61,2.42-.17.78-1.24,1.9.26,2.85a9,9,0,0,0,1.93.73C34.93,64.28,33.71,66,35.38,67.22Z" transform="translate(-7.43 -2.67)"/><path class="cls-14" d="M48.69,92.68,50,91.92c.36-.21.72-.43,1.07-.66a6.75,6.75,0,0,0,1-.76,2.76,2.76,0,0,0,.64-1.79c.08-.91.21-1.81.34-2.71s.29-2,.45-3c.31-2,.65-4,1-6s.83-3.87,1.34-5.78l-.57.12c-1.69.38-3.36.83-5,1.32s-3.31,1-5,1.53c-.66.21-1.32.41-2,.64-.51.18-1,.37-1.54.53a7.53,7.53,0,0,1-3.18.46,3.51,3.51,0,0,1-.73-.16,3.75,3.75,0,0,0,3,.52c1.47-.29,7-1.83,8.08,0s1.36,12.45.4,15.3A6.12,6.12,0,0,1,48.69,92.68Z" transform="translate(-7.43 -2.67)"/><path class="cls-14" d="M45.69,99.29a9.14,9.14,0,0,1,2.14-1,16.32,16.32,0,0,1,2.86-.59c2.15-.3,4.31-.46,6.47-.66a56,56,0,0,0,6.2-.84c-1.69,0-3.38,0-5.07,0-3.18.1-6.37.31-9.54.58a10,10,0,0,0-3.15.68,5.87,5.87,0,0,0-.88.5,1.51,1.51,0,0,0-.13.24c-.2.43-1.15,2.22-2.23,4.23A14.08,14.08,0,0,1,45.69,99.29Z" transform="translate(-7.43 -2.67)"/><path class="cls-14" d="M74.16,90.77c-1.84-3-3.7-14.9-2.7-17.78,2.3-6.66,9.48-8.5,13.3-16.47a30.11,30.11,0,0,1-5.14,4.28c-1.7,1.17-3.45,2.26-5.16,3.43a22.48,22.48,0,0,0-4.82,4.09c-3,3.61-3.58,8.36-3.27,12.9a48,48,0,0,0,1,7A49.58,49.58,0,0,0,70,96c1.69,4.27,3.09,8.65,4.38,13.06l1.07-.22q3.14-.66,6.21-1.58c-.18-.68-.38-1.37-.59-2A78.26,78.26,0,0,0,74.16,90.77Z" transform="translate(-7.43 -2.67)"/><path class="cls-15" d="M33.2,47.82c-.44.69-4.29,4.46-5.9,6.28,1.14-1,2.38-2,3.54-3,.67-.59,1.48-1,2.19-1.57a3,3,0,0,0,1.47-2.19,4.1,4.1,0,0,0-.3-1.46,12.54,12.54,0,0,0-.7-1.54c-.23-.46-.48-.91-.7-1.37a5.42,5.42,0,0,1-.48-1.67,22.71,22.71,0,0,1,.11-4c.08-1.4.19-2.8.35-4.19.11-.94.23-1.87.37-2.81a28.53,28.53,0,0,0-1.26,11.65C32.11,44.31,34.53,45.71,33.2,47.82Z" transform="translate(-7.43 -2.67)"/><path class="cls-14" d="M40.34,45.28c-.38-.31-.74-.65-1.11-1a13.18,13.18,0,0,0-1.15-.95,5.57,5.57,0,0,0-1.32-.7s0-.07,0-.09a4.23,4.23,0,0,1,1.05-.25,4.6,4.6,0,0,1,1.88.16,4.83,4.83,0,0,1,1.49.74.41.41,0,0,0,0-.09,5.43,5.43,0,0,0-1.48-1.65,4.26,4.26,0,0,0-1.74-.73,5.83,5.83,0,0,0-1.91,0,10.15,10.15,0,0,0-2,.58,17.12,17.12,0,0,0-1.92,1c.16.45.47.83.62,1.28h0a7.29,7.29,0,0,0,.81.94,4.14,4.14,0,0,1,.47-.91s.08,0,.08,0a4.59,4.59,0,0,0,.13,1.33,7.19,7.19,0,0,0,.9,2.09c.41.68.87,1.33,1.3,2a0,0,0,0,1,0,.06,1.47,1.47,0,0,0-.34.32,4.45,4.45,0,0,0-.52.87,6.8,6.8,0,0,0-.3.67v0a6.07,6.07,0,0,1,1.26-1.22,3,3,0,0,1,.87-.3c.31-.07.63-.12.94-.18a2.65,2.65,0,0,0,.86-.33,2.27,2.27,0,0,0,.61-.66,5.57,5.57,0,0,1,.52-.68,2.86,2.86,0,0,1,.78-.54,5.11,5.11,0,0,1,1.62-.47,4.21,4.21,0,0,1-1.18-.44A7,7,0,0,1,40.34,45.28Z" transform="translate(-7.43 -2.67)"/><path class="cls-14" d="M32.72,59.74a8.52,8.52,0,0,1,.67-.91,3.61,3.61,0,0,1,.33-.35l.31-.32a.8.8,0,0,0,.2-.36.53.53,0,0,0-.06-.39.78.78,0,0,0-.4-.38,2.78,2.78,0,0,0-.68-.25,5,5,0,0,0-.77-.14c-.22,0-.45,0-.67-.06h-.24l-.3,0c-.45,0-.91,0-1.36,0a13.29,13.29,0,0,1-1.41,0,4.06,4.06,0,0,1-1.25-.28L26.82,56a2.9,2.9,0,0,0,.92,1c1.37.83,2,.52,3.41,1.15a3,3,0,0,1,1.54,1.59Z" transform="translate(-7.43 -2.67)"/><path class="cls-14" d="M36.37,64.11c.33,0,.68,0,1,.06l-.8-.19c-.5-.11-1-.21-1.49-.34a9.29,9.29,0,0,1-1.43-.49,4,4,0,0,1-1.17-.74l-.09-.09s0,0,0,0l0,0-.1-.12A1.34,1.34,0,0,0,33,63.48a9.1,9.1,0,0,0,1.71.67A12.79,12.79,0,0,1,36.37,64.11Z" transform="translate(-7.43 -2.67)"/><path class="cls-14" d="M35.5,67.28v.17a11.81,11.81,0,0,0,0,1.46c0,.2,0,.66.08,1.25a4.86,4.86,0,0,0,.66-.54,3.16,3.16,0,0,0,.67-.91,9.34,9.34,0,0,0,.47-1.38,9.15,9.15,0,0,1-1.65-.11,3.77,3.77,0,0,1-.58-.14l.18.14Z" transform="translate(-7.43 -2.67)"/><path class="cls-16" d="M40.33,46.45l-.54-.24-.68-.44c-.46-.32-.9-.66-1.36-1A8.45,8.45,0,0,0,36.31,44c-.39-.17-1-.44-1.43-.22a.71.71,0,0,0-.17.11,1.27,1.27,0,0,0-.13.22,1,1,0,0,0-.06.23.48.48,0,0,0,0,.12.8.8,0,0,1,.13-.22.83.83,0,0,1,.34-.33,1.11,1.11,0,0,1,.69.08c.23.08.46.17.68.27a18.41,18.41,0,0,1,2.57,1.58l-1.12-.53c-.44-.2-.89-.4-1.35-.58a3.23,3.23,0,0,0-1.12-.27c-.34,0-.59.17-.61.41h-.17l-.28,0-.05,0s0,0,0,0l.28,0a.66.66,0,0,0,.2,0s0,0,0,0l-.1,0a1.24,1.24,0,0,1-.59,0,2.49,2.49,0,0,0,.32.2,1.24,1.24,0,0,0,.27,0c.1,0,.23-.06.28-.14s0-.06,0-.07a.39.39,0,0,1,.16-.3.77.77,0,0,1,.34,0l.1,0a.91.91,0,0,0-.13.38,3.38,3.38,0,0,0,0,.84,4.61,4.61,0,0,0,.38,1.66,4.7,4.7,0,0,0,.37.65,5.35,5.35,0,0,0,.39.58.63.63,0,0,1,0,.19s0,0,0,.06h-.08a.1.1,0,0,0-.08,0h0l.14.1.06,0,.05,0h.11a2.5,2.5,0,0,0,.47,0,7,7,0,0,0,.93-.22,2.86,2.86,0,0,0,.83-.38,1.58,1.58,0,0,0,.61-.59v0l0,0a1.59,1.59,0,0,1,.13-.13l.65-.6.16-.12.23-.17.44.14Z" transform="translate(-7.43 -2.67)"/><path class="cls-17" d="M40.07,46.69l0,.07s0,0,0,0l0,0-.08.12v0l0,0h0l-.06.09-.1.17a2.84,2.84,0,0,1-1.31,1.25,3.69,3.69,0,0,1-.88.32c-.28.06-.57.08-.85.12a.47.47,0,0,0-.07-.25,0,0,0,0,0,0,0c-.09-.15-.2-.3-.28-.45a5,5,0,0,1-.31-.61,4.34,4.34,0,0,1-.28-.91,7.24,7.24,0,0,1-.13-1.61,1,1,0,0,1,0-.35.14.14,0,0,1,0-.06,5.65,5.65,0,0,1,.76.26c1,.43,2,.93,3,1.39l.72.32A.09.09,0,0,0,40.07,46.69Z" transform="translate(-7.43 -2.67)"/><path class="cls-18" d="M36,47.61a5,5,0,0,0,.31.61l.15.25a.86.86,0,0,0,.2.13.29.29,0,0,0,.3-.09,1.08,1.08,0,0,0,.28-.71,4.6,4.6,0,0,0,0-.91A7.59,7.59,0,0,0,37,45.83c-.07-.25-.15-.49-.23-.73l-.38-.16a5.65,5.65,0,0,0-.76-.26.14.14,0,0,0,0,.06,1,1,0,0,0,0,.35,7.24,7.24,0,0,0,.13,1.61A4.34,4.34,0,0,0,36,47.61Z" transform="translate(-7.43 -2.67)"/><path class="cls-19" d="M36.45,47.56a5.25,5.25,0,0,0-.08-1.63c-.07-.35-.06-.71-.15-1.06a5.8,5.8,0,0,0-.59-.19.14.14,0,0,0,0,.06,1,1,0,0,0,0,.35,7.24,7.24,0,0,0,.13,1.61,4.34,4.34,0,0,0,.28.91c.09.2.19.39.29.58A2.29,2.29,0,0,0,36.45,47.56Z" transform="translate(-7.43 -2.67)"/><g class="cls-20"><path class="cls-21" d="M35.58,45.61a1.94,1.94,0,0,1,.68,0,6.84,6.84,0,0,1,1.36.38,6.93,6.93,0,0,1,2.07,1.27h0l.1-.17.06-.09h0l0,0v0l.08-.12,0,0s0,0,0,0l0-.07a.09.09,0,0,1,.08,0l-.72-.32c-1-.46-2-1-3-1.39a5.65,5.65,0,0,0-.76-.26.14.14,0,0,0,0,.06,1,1,0,0,0,0,.35,4.69,4.69,0,0,0,0,.53Z" transform="translate(-7.43 -2.67)"/></g><path class="cls-17" d="M36.36,46.32a1.81,1.81,0,0,0-.12-.56.62.62,0,0,0-.28-.35.17.17,0,0,0-.21.09v0s0,0,0,0a2.36,2.36,0,0,0,.3,1.77c0,.06.18,0,.21,0a.84.84,0,0,0,.14-.42A2.25,2.25,0,0,0,36.36,46.32Z" transform="translate(-7.43 -2.67)"/><path class="cls-17" d="M36.74,47.42l0,0,0,0h-.07a.11.11,0,0,0-.07,0l0,0,0,0s0,0,0,.06a.21.21,0,0,0,.05.12v0h.1a.18.18,0,0,0,.1-.07.32.32,0,0,0,0-.09A.3.3,0,0,0,36.74,47.42Z" transform="translate(-7.43 -2.67)"/><path class="cls-18" d="M40.4,42.15a4,4,0,0,0-1.21-1,5,5,0,0,0-1.49-.58,5.8,5.8,0,0,0-3.7.75,2,2,0,0,0-.68.48.05.05,0,0,0,0,0c-.06.08-.11.17-.17.26l-.14.12h0v0a1.64,1.64,0,0,1,.26-.55s0-.07,0,0a1.07,1.07,0,0,0-.26.4s0-.05,0-.08-.15,0-.15,0a3.38,3.38,0,0,0,0,.45l0,0a2.74,2.74,0,0,1-.15-.4l0,0s0,0,0,0-.08.28-.11.42a5,5,0,0,0,.06.54l.06.14a3.12,3.12,0,0,0,.64.85,6.65,6.65,0,0,0,.66-.42l.19-.16a2.64,2.64,0,0,1,.35-.23l.22-.16A9.4,9.4,0,0,1,36.13,42a3.27,3.27,0,0,1,1.53-.35,7.07,7.07,0,0,1,1.7.31,7.49,7.49,0,0,0,1,.25S40.41,42.17,40.4,42.15Z" transform="translate(-7.43 -2.67)"/><path class="cls-15" d="M36.34,51.19a9.26,9.26,0,0,0-1.17,5.27,35.08,35.08,0,0,0,2,6.73S35,57.7,36.05,55s5.05-6.07,5.05-6.07S37.59,50,36.34,51.19Z" transform="translate(-7.43 -2.67)"/><path class="cls-22" d="M58.07,45s3.31,3.53,2.56,12.44S62.82,79.94,63.7,84a3.42,3.42,0,0,0,2.42-1.32s-3.3-24-1.32-27.8,7.61-2.78,7.61-2.78S66.12,41,58.07,45Z" transform="translate(-7.43 -2.67)"/><path class="cls-23" d="M72.41,52.14S66.12,41,58.07,45a11.33,11.33,0,0,1,2.2,5.14A1.69,1.69,0,0,1,62,49.92c.91.47,1,1.77,1.09,2.67A23.11,23.11,0,0,1,62.7,57a21,21,0,0,0-.21,2.24c0,.79,0,1.57,0,2.35,0,1.62.1,3.24.2,4.85.21,3.28.54,6.55,1,9.81.35,2.48.79,5,1.3,7.4a3.81,3.81,0,0,0,1.1-.91s-3.3-24-1.32-27.8S72.41,52.14,72.41,52.14Z" transform="translate(-7.43 -2.67)"/><path class="cls-24" d="M81.7,43.87s2.88,6.42-7,9.15c-7.39,2-14-7.68-14-7.68S72.19,40.07,81.7,43.87Z" transform="translate(-7.43 -2.67)"/><path class="cls-25" d="M81.7,43.87c-9.51-3.8-21,1.47-21,1.47s6.66,9.73,14,7.68C84.58,50.29,81.7,43.87,81.7,43.87Zm-.86,3.89a4.64,4.64,0,0,1-.41.8,5,5,0,0,1-1.33,1.35,6.72,6.72,0,0,1-1.73.88,9.6,9.6,0,0,1-1.92.46,10.47,10.47,0,0,1-1.94.06,11.26,11.26,0,0,1-2.32-.4,6.64,6.64,0,0,1-2.08-1,7.41,7.41,0,0,1-.72-.65,6.68,6.68,0,0,1-.7-.8,1.92,1.92,0,0,1-.44-1.71A1.28,1.28,0,0,1,68,46a2.85,2.85,0,0,1,1.23-.17,8.45,8.45,0,0,1,1.52.24c.53.12,1,.28,1.55.44l1.34.44.5.14c.21.06.43.09.65.13a16.44,16.44,0,0,0,2,.23,9,9,0,0,0,1.56,0l.71-.34c.29-.15.56-.33.85-.48a1.54,1.54,0,0,1,.42-.17.65.65,0,0,1,.39.05A.56.56,0,0,1,81,47,1.92,1.92,0,0,1,80.84,47.76Z" transform="translate(-7.43 -2.67)"/><g class="cls-20"><path class="cls-26" d="M72.55,52.75a7.77,7.77,0,0,1-3.32-.69,19.67,19.67,0,0,1-7.39-6.14l.12-.09a19.38,19.38,0,0,0,7.33,6.1A9.38,9.38,0,0,0,78,51a7.31,7.31,0,0,0,3.6-6.29h.14a7.42,7.42,0,0,1-3.66,6.42A10.29,10.29,0,0,1,72.55,52.75Z" transform="translate(-7.43 -2.67)"/><path class="cls-26" d="M72.38,51.9a8.16,8.16,0,0,1-3.16-.59,19.8,19.8,0,0,1-7.35-5.42L62,45.8a19.54,19.54,0,0,0,7.28,5.37A10,10,0,0,0,78,50.12a7,7,0,0,0,3.56-5.5h.15a7.07,7.07,0,0,1-3.64,5.61A10.93,10.93,0,0,1,72.38,51.9Z" transform="translate(-7.43 -2.67)"/><path class="cls-26" d="M72.19,51.05a8.53,8.53,0,0,1-3-.5,20,20,0,0,1-7.29-4.69l.11-.1a19.78,19.78,0,0,0,7.24,4.65A10.73,10.73,0,0,0,78,49.3a6.73,6.73,0,0,0,3.55-4.73l.15,0a6.91,6.91,0,0,1-3.62,4.83A11.68,11.68,0,0,1,72.19,51.05Z" transform="translate(-7.43 -2.67)"/><path class="cls-26" d="M72,50.21a9.16,9.16,0,0,1-2.82-.41,20.93,20.93,0,0,1-7.24-4l.1-.11a20.79,20.79,0,0,0,7.19,3.94,11.6,11.6,0,0,0,8.7-1.14,6.8,6.8,0,0,0,3.58-4l.14,0A7,7,0,0,1,78,48.65,12.76,12.76,0,0,1,72,50.21Z" transform="translate(-7.43 -2.67)"/><path class="cls-26" d="M71.76,49.36A9.6,9.6,0,0,1,69.18,49,23.3,23.3,0,0,1,62,45.8l.09-.11a23,23,0,0,0,7.14,3.21,12.72,12.72,0,0,0,7.24-.52c2.49-.9,4.37-2.36,5-3.91l.13.06c-.68,1.61-2.55,3.06-5.11,4A14.36,14.36,0,0,1,71.76,49.36Z" transform="translate(-7.43 -2.67)"/><path class="cls-26" d="M71.5,48.52a11.36,11.36,0,0,1-2.33-.23,31.42,31.42,0,0,1-5.23-1.62A20.06,20.06,0,0,1,62,45.78l.08-.13a18.32,18.32,0,0,0,1.88.89,30.76,30.76,0,0,0,5.21,1.6,14.34,14.34,0,0,0,7-.52,10,10,0,0,0,5.22-3.2l.12.08a10,10,0,0,1-5.29,3.26A16.48,16.48,0,0,1,71.5,48.52Z" transform="translate(-7.43 -2.67)"/><path class="cls-26" d="M71.14,47.68a12.17,12.17,0,0,1-2-.15,36.72,36.72,0,0,1-7.08-1.78l.05-.14a36.76,36.76,0,0,0,7.05,1.78A17.64,17.64,0,0,0,76,46.87a13.6,13.6,0,0,0,5.4-2.51l.1.11A13.69,13.69,0,0,1,76.07,47,20,20,0,0,1,71.14,47.68Z" transform="translate(-7.43 -2.67)"/><path class="cls-26" d="M70.65,46.85c-.53,0-1,0-1.51-.07a63.14,63.14,0,0,1-7-1.06l0-.14a63.9,63.9,0,0,0,7,1.05,26.71,26.71,0,0,0,12.25-2.32l.07.13a24.24,24.24,0,0,1-5.64,1.83A26.24,26.24,0,0,1,70.65,46.85Z" transform="translate(-7.43 -2.67)"/><path class="cls-26" d="M69.88,46h-.75c-4.16-.16-6.93-.33-7-.33v-.15s2.8.18,7,.34a52.18,52.18,0,0,0,12.25-1.62l0,.14A55.71,55.71,0,0,1,69.88,46Z" transform="translate(-7.43 -2.67)"/><path class="cls-26" d="M62.21,45.66v-.15s2.83-.28,6.92-.39c1.78,0,3.87-.26,5.9-.46,2.34-.23,4.55-.45,6.35-.45h0v.15h0c-1.79,0-4,.22-6.34.45-2,.2-4.12.41-5.91.46C65,45.38,62.24,45.65,62.21,45.66Z" transform="translate(-7.43 -2.67)"/><path class="cls-26" d="M62.26,45.62l0-.14a51.58,51.58,0,0,1,6.88-1.12l.41,0c3.64-.35,8.18-.8,11.84-.15l0,.15c-3.64-.65-8.16-.21-11.8.15l-.41,0A52.38,52.38,0,0,0,62.26,45.62Z" transform="translate(-7.43 -2.67)"/><path class="cls-26" d="M62.3,45.59l0-.14a35.54,35.54,0,0,1,6.2-1.73,27.07,27.07,0,0,1,12.87.41l0,.14a26.87,26.87,0,0,0-12.79-.41A35.63,35.63,0,0,0,62.3,45.59Z" transform="translate(-7.43 -2.67)"/></g><path class="cls-26" d="M83.56,38.24c-.75-8.89-7.81-17.07-16.35-19.41A36.09,36.09,0,0,0,50,18.64c-4.78,1.23-10.13,3.69-12.26,8.72a9.75,9.75,0,0,0,.84,8.9,9.62,9.62,0,0,0,6.47,4.35,15.78,15.78,0,0,0,4.12,0,12.29,12.29,0,0,1,2.5,0,4.32,4.32,0,0,1,1.12.25c.34.13.66.3,1,.46s.49.24.74.33a4,4,0,0,0-.21,1.13,2.47,2.47,0,0,0,.21,1.07,3.14,3.14,0,0,0,.69,1,5.94,5.94,0,0,0,2.45,1.48,6.94,6.94,0,0,0,2.68.24,17.79,17.79,0,0,0,2.79-.52L66,45.34c.77-.18,1.55-.38,2.34-.53l.52.08A25.14,25.14,0,0,1,72.14,46a12.25,12.25,0,0,0,5.7.5,7.79,7.79,0,0,0,2.69-.91,5.78,5.78,0,0,0,2-1.92A8.76,8.76,0,0,0,83.56,38.24Z" transform="translate(-7.43 -2.67)"/><path class="cls-27" d="M72.54,32.56a4.33,4.33,0,0,0-.7-.21l0,0,0,0h0l0,0,.08,0,.1,0s0,0,0,0a0,0,0,0,0,0,0,.37.37,0,0,0-.23.05l-.11.08s0,0,0,0a6.47,6.47,0,0,0-3.09.23,7.67,7.67,0,0,0-1.81.85,18.3,18.3,0,0,0-1.74,1.3A21.36,21.36,0,0,1,63.42,36a4.61,4.61,0,0,1-1,.48,11.06,11.06,0,0,1-1.13.3,12.34,12.34,0,0,0-3.91,1.63,9.63,9.63,0,0,0-1.59,1.27,5.26,5.26,0,0,0-1.15,1.54,1.9,1.9,0,0,0-.15.46s0,0,0,0a5.86,5.86,0,0,1,.48-.89,4.94,4.94,0,0,1,.62-.75,9.74,9.74,0,0,1,1.51-1.28A12.39,12.39,0,0,1,60.92,37,11.28,11.28,0,0,0,63,36.36a11.69,11.69,0,0,0,1.69-1.19,16.17,16.17,0,0,1,3.45-2.29,6.15,6.15,0,0,1,3.56-.47s0,0,0,0l.27.07.45.13S72.58,32.58,72.54,32.56Z" transform="translate(-7.43 -2.67)"/><path class="cls-27" d="M45.68,37.37a6.91,6.91,0,0,1-1.33-1.08,9,9,0,0,1-1.08-1.38,12.25,12.25,0,0,1-.85-1.6,12.06,12.06,0,0,1-.71-1.84,9.65,9.65,0,0,1-.35-1.93c-.06-.65-.1-1.3-.19-1.95a6.22,6.22,0,0,0-.37-1.53,1.9,1.9,0,0,0-.7-.95,1,1,0,0,0-1.13.16,2.72,2.72,0,0,0-.78,1.19l-.09.31s0,0,0,0a3.45,3.45,0,0,1,.71-1.23.89.89,0,0,1,1.08-.3,1.75,1.75,0,0,1,.68.92,7,7,0,0,1,.37,1.5c.08.63.12,1.26.19,1.89a10.33,10.33,0,0,0,.36,1.84,13.26,13.26,0,0,0,.69,1.75c.26.54.54,1.07.85,1.58a8,8,0,0,0,2.2,2.5,2.39,2.39,0,0,0,.34.21S45.72,37.39,45.68,37.37Z" transform="translate(-7.43 -2.67)"/><path class="cls-27" d="M47.14,39.59a2.69,2.69,0,0,1-1.77.12A5.74,5.74,0,0,1,43.66,39a8.33,8.33,0,0,1-1.58-1.38,8.19,8.19,0,0,1-.71-.87,6.94,6.94,0,0,1-.52-1c-.18-.39-.33-.78-.5-1.17a5.73,5.73,0,0,1-.44-1.22s-.07,0-.07,0a5.64,5.64,0,0,0,.34,1.15c.15.37.29.74.43,1.1a7.24,7.24,0,0,0,.49,1,7,7,0,0,0,.68.91,8.6,8.6,0,0,0,1.64,1.49,5.3,5.3,0,0,0,1.74.76,2.77,2.77,0,0,0,2-.15S47.2,39.56,47.14,39.59Z" transform="translate(-7.43 -2.67)"/><path class="cls-27" d="M51.64,37.57c0-.06-.11,0-.11,0a6.4,6.4,0,0,1,.18,1.15,1.62,1.62,0,0,1-.41,1.06,1.45,1.45,0,0,1-.82.47,3.28,3.28,0,0,1-1.21,0,4.36,4.36,0,0,1-1.25-.5s-.08,0-.05.05a2.83,2.83,0,0,0,2.39.6A1.72,1.72,0,0,0,51.83,39,3.71,3.71,0,0,0,51.64,37.57Z" transform="translate(-7.43 -2.67)"/><path class="cls-27" d="M39.25,31.27c-.18-.35-.37-.68-.52-1.05s-.25-.7-.35-1a7,7,0,0,1-.28-2,1.92,1.92,0,0,1,.23-1h0A2.38,2.38,0,0,0,38,28a8.19,8.19,0,0,0,.17,1c-.69.27-.64,1.29-.49,1.88a2,2,0,0,0,.19.52s.1,0,.08-.05a3.06,3.06,0,0,1-.21-.93,1.92,1.92,0,0,1,.13-1,.78.78,0,0,1,.32-.35,5.63,5.63,0,0,0,.39,1.11,6.19,6.19,0,0,0,.3.57,5.65,5.65,0,0,0,.36.58S39.26,31.29,39.25,31.27Z" transform="translate(-7.43 -2.67)"/><path class="cls-27" d="M41,36.28a1.51,1.51,0,0,1-1.06-.56,3.85,3.85,0,0,1-.38-.52,2.65,2.65,0,0,1-.27-.53s-.06,0,0,0a3.86,3.86,0,0,0,.21.6,3.19,3.19,0,0,0,.39.57,1.36,1.36,0,0,0,1.14.53C41,36.38,41,36.28,41,36.28Z" transform="translate(-7.43 -2.67)"/><path class="cls-27" d="M43.92,22a.68.68,0,0,0-.69-.28,2.81,2.81,0,0,0-1,.31,3.07,3.07,0,0,0-.74.49,4.5,4.5,0,0,0-.46.52,5.42,5.42,0,0,0-.48.67,2.49,2.49,0,0,0-.29.76c-.05.25-.08.51-.15.76,0,0,0,0,.06,0,.24-.38.21-.86.41-1.26a5.19,5.19,0,0,1,.9-1.23,2.62,2.62,0,0,1,.65-.5,3,3,0,0,1,.87-.37.78.78,0,0,1,.83.17S43.94,22,43.92,22Z" transform="translate(-7.43 -2.67)"/><path class="cls-27" d="M45,29c-.07-.33-.16-.66-.25-1a5.21,5.21,0,0,0-.32-.94c-.08-.16-.17-.31-.26-.46s-.16-.33-.26-.48,0,0-.07,0c.08-.32.17-.63.26-.95a5.82,5.82,0,0,0,.2-1.18c0-.23,0-.46,0-.69s0-.46,0-.69c0,0,0,0,0,0,0,.2,0,.41-.05.62s0,.43,0,.64A7.22,7.22,0,0,1,44,25.1c-.11.42-.24.84-.31,1.27a8.58,8.58,0,0,0-.14,1.23,6.47,6.47,0,0,0,.07,1.46s.06,0,.06,0a7.51,7.51,0,0,1,0-1.34,9,9,0,0,1,.19-1.27l0-.15a3.59,3.59,0,0,0,.17.34l.23.41a5,5,0,0,1,.34.91,16.79,16.79,0,0,1,.48,2,6.29,6.29,0,0,1,.08,1.15c0,.05.08,0,.09,0A7.84,7.84,0,0,0,45,29Z" transform="translate(-7.43 -2.67)"/><path class="cls-27" d="M49,35.2a5.55,5.55,0,0,0-.89-.32h0L48,34.75a1.23,1.23,0,0,0-.14-.25,2.11,2.11,0,0,0-.39-.4s-.09,0-.06.06a1.29,1.29,0,0,1,.35.42,1,1,0,0,1,.12.23v0h0a10.63,10.63,0,0,0-1.26-.06A3.37,3.37,0,0,1,44.68,34a3,3,0,0,1-.73-.88s-.07,0-.06,0a3.05,3.05,0,0,0,.58.85,3.09,3.09,0,0,0,.82.57,3.41,3.41,0,0,0,1,.3c.44.06.88,0,1.32.05L48,35l0,0a.07.07,0,0,0,.07,0l.86.23S49,35.22,49,35.2Z" transform="translate(-7.43 -2.67)"/><path class="cls-27" d="M50.41,38a1.09,1.09,0,0,0-.31-.08,2.33,2.33,0,0,0-.53,0l-.26-.2A7,7,0,0,0,47.92,37c-.27-.11-.54-.21-.81-.33,0,0-.09.05,0,.07a10,10,0,0,1,2.58,1.49,1.64,1.64,0,0,1,.26.33,1.74,1.74,0,0,1,.11.18,1,1,0,0,0,.11.2s.1,0,.1,0a.93.93,0,0,0-.14-.36,2.2,2.2,0,0,0-.21-.32l-.19-.2H50a.9.9,0,0,1,.27.07.52.52,0,0,1,.13.06.32.32,0,0,0,.14.08.05.05,0,0,0,.07-.06C50.62,38.05,50.49,38,50.41,38Z" transform="translate(-7.43 -2.67)"/><path class="cls-27" d="M56.66,37.38a4.79,4.79,0,0,0-2.49-2.86c-1.37-.75-2.89-1.15-4.32-1.77a6.78,6.78,0,0,1-1.57-.95,7,7,0,0,1-1.2-1.35l-.27-.4s-.11,0-.09.07a6.32,6.32,0,0,0,2,2.2,1,1,0,0,1-.38.08,1.72,1.72,0,0,1-.55-.1,2.4,2.4,0,0,1-.93-.53s-.09,0-.06.05a2.4,2.4,0,0,0,1,.63,1.23,1.23,0,0,0,1.06-.06l.35.21a15.35,15.35,0,0,0,2,.83c.75.29,1.5.56,2.22.88a5.71,5.71,0,0,1,2.89,2.43,3.17,3.17,0,0,1,.34,1.86,1.26,1.26,0,0,1-.85,1,2.43,2.43,0,0,1-1.36-.08,5.77,5.77,0,0,1-1.3-.57l-.24-.17s-.07,0-.05.05a4.47,4.47,0,0,0,1.16.71,3.08,3.08,0,0,0,1.43.28,1.47,1.47,0,0,0,1.15-.65A2.31,2.31,0,0,0,56.66,37.38Z" transform="translate(-7.43 -2.67)"/><path class="cls-27" d="M50.74,20.26a2.13,2.13,0,0,0-.63-.85,1.79,1.79,0,0,0-1-.4,2.64,2.64,0,0,0-.69,0,3.35,3.35,0,0,0-.69.25,3.11,3.11,0,0,0-.63.38,2.23,2.23,0,0,0-.19.24,1,1,0,0,1-.17.24l-.17-.08a1.76,1.76,0,0,0-1.11,0,3.35,3.35,0,0,0-1.19.64,3.39,3.39,0,0,0-.82.95c0,.05,0,.05.07,0a4.15,4.15,0,0,1,1.76-1.4,1.73,1.73,0,0,1,1.1-.07,1.36,1.36,0,0,1,.8.61,2.63,2.63,0,0,1,.29,1,9.47,9.47,0,0,1,0,1.07l0,1.21c0,.54,0,1.09.07,1.63a7.75,7.75,0,0,0,.9,3s.12,0,.1-.06c-.18-.45-.37-.92-.51-1.39a7.92,7.92,0,0,1-.29-1.45c-.06-.57-.07-1.13-.09-1.7l0-1.3a4.34,4.34,0,0,0-.34-2.11,1.41,1.41,0,0,0-.55-.56,1.12,1.12,0,0,0,.27-.3,1.33,1.33,0,0,1,.49-.36,4.78,4.78,0,0,1,.62-.26,2.13,2.13,0,0,1,.67-.1,1.86,1.86,0,0,1,1,.32,2,2,0,0,1,.63.78,3.48,3.48,0,0,1,.25,1.14c0,.09.14,0,.15-.05A2.21,2.21,0,0,0,50.74,20.26Z" transform="translate(-7.43 -2.67)"/><path class="cls-27" d="M52.73,30.44a10.43,10.43,0,0,1-1-.8A4.74,4.74,0,0,1,51,28.7,8.94,8.94,0,0,1,50.15,26c-.13-.56-.26-1.13-.4-1.69,0-.05-.09,0-.08,0,.12.51.19,1,.29,1.55s.21,1,.35,1.53a5.52,5.52,0,0,0,.49,1.24,4,4,0,0,0,.73,1,4.83,4.83,0,0,0,1.12.84S52.77,30.47,52.73,30.44Z" transform="translate(-7.43 -2.67)"/><path class="cls-27" d="M57.21,34.48a3.63,3.63,0,0,0-1.37-2.28,6.5,6.5,0,0,0-1.32-.79s-.08.05,0,.06a5.92,5.92,0,0,1,1,.68,4.89,4.89,0,0,1,.88.88A3.44,3.44,0,0,1,57,34.12,2.11,2.11,0,0,1,57,35.41a1,1,0,0,1-.39.5c-.16.11-.38.22-.56.11s-.15.06-.09.1c.3.22.75-.12,1-.35A1.68,1.68,0,0,0,57.21,34.48Z" transform="translate(-7.43 -2.67)"/><path class="cls-27" d="M54.86,28.63c0-.17,0-.33-.08-.49a5.28,5.28,0,0,0-.33-1c-.12-.27-.27-.52-.41-.78a7.77,7.77,0,0,0-.48-.78,2.41,2.41,0,0,0-.68-.67c0-.45-.1-.9-.18-1.34a5.88,5.88,0,0,0-.94-2.45,2.78,2.78,0,0,0-1.09-.92s-.09,0-.05.07a4.16,4.16,0,0,1,.92.86,4.32,4.32,0,0,1,.6,1.12,10,10,0,0,1,.54,2.59c0,.24,0,.48.07.72s0,.45.07.67c0,.07.12,0,.13,0a10.84,10.84,0,0,0-.06-1.13,5,5,0,0,1,.94,1.3,7.8,7.8,0,0,1,.74,1.67,4.32,4.32,0,0,1,.1.54c0,.17,0,.35,0,.53s.12,0,.13,0A1.47,1.47,0,0,0,54.86,28.63Z" transform="translate(-7.43 -2.67)"/><path class="cls-27" d="M56.59,23.16a7.61,7.61,0,0,0-.19-1.33,5.86,5.86,0,0,0-1.16-2.26,4.18,4.18,0,0,0-2-1.38,3.89,3.89,0,0,0-2,.1c-.5.13-1.27.41-1.24,1.06,0,0,.06,0,.06,0,.07-.55.65-.77,1.12-.89a4,4,0,0,1,1.88-.12,3.87,3.87,0,0,1,2,1.29,5.83,5.83,0,0,1,1.16,2.11,7.75,7.75,0,0,1,.23,1.43,11.87,11.87,0,0,0,.17,1.46c0,.06.11,0,.11,0C56.66,24.1,56.62,23.63,56.59,23.16Z" transform="translate(-7.43 -2.67)"/><path class="cls-27" d="M56.83,28.33a3.41,3.41,0,0,1-.64-1,5.94,5.94,0,0,1-.35-1.18c-.08-.38-.15-.78-.22-1.17a11.63,11.63,0,0,0-.35-1.44,9.63,9.63,0,0,0-.66-1.6s-.07,0-.06,0a14.25,14.25,0,0,1,.88,3A11.78,11.78,0,0,0,56,27.34a2.49,2.49,0,0,0,.75,1.08S56.87,28.38,56.83,28.33Z" transform="translate(-7.43 -2.67)"/><path class="cls-27" d="M60.15,35.54a4.85,4.85,0,0,0-.13-.93,3.31,3.31,0,0,0-.18-.53c0-.06-.09-.29-.18-.33a2.88,2.88,0,0,0-.18-1.2,7.16,7.16,0,0,0-1-1.86,5.73,5.73,0,0,0-.79-.84s-.09,0-.06,0a7.88,7.88,0,0,1,1.18,1.63,8,8,0,0,1,.45.93,3.54,3.54,0,0,1,.24,1,2.75,2.75,0,0,1-.22,1.16c0,.1.11.08.15,0a2.19,2.19,0,0,0,.23-.71l.07.22c0,.16.11.32.15.49a3.85,3.85,0,0,1,.11.83,4.12,4.12,0,0,1,0,.86,1.63,1.63,0,0,1-.09.45c0,.14-.12.25-.17.38s0,0,0,0a1.12,1.12,0,0,0,.37-.71A4.16,4.16,0,0,0,60.15,35.54Z" transform="translate(-7.43 -2.67)"/><path class="cls-27" d="M58.94,36.06c0-.05-.07,0-.08,0a1.5,1.5,0,0,1-.15.51,2.75,2.75,0,0,1-.19.28,5.16,5.16,0,0,0-.32-1s-.09,0-.08,0a5.24,5.24,0,0,1,.25,1s0,.09,0,.13v0a1.2,1.2,0,0,1,0,.38.67.67,0,0,1-.07.24,1.53,1.53,0,0,1-.14.21s0,.06.05,0a.72.72,0,0,0,.3-.42,1.4,1.4,0,0,0,0-.5A1.35,1.35,0,0,0,58.94,36.06Z" transform="translate(-7.43 -2.67)"/><path class="cls-27" d="M64.23,33.45A5.43,5.43,0,0,0,63.49,31a2.88,2.88,0,0,0-.93-1s-.1,0-.06.06a3.74,3.74,0,0,1,1.29,2,6,6,0,0,1,.26,2.35,2.64,2.64,0,0,1-.46,1.47c-.05.06,0,.1.08,0a2.45,2.45,0,0,0,.51-1.27A5.79,5.79,0,0,0,64.23,33.45Z" transform="translate(-7.43 -2.67)"/><path class="cls-27" d="M62.38,33.76c-.22-.55-.54-1.06-.8-1.59-.12-.27-.24-.54-.34-.82a2.36,2.36,0,0,0,0-.75A11.14,11.14,0,0,0,61,29.45a7,7,0,0,0-1-2.34,3.88,3.88,0,0,0-1-1s-.07,0,0,0a5.08,5.08,0,0,1,1.47,2,10.18,10.18,0,0,1,.39,1.18c.09.37.18.75.25,1.13a3.94,3.94,0,0,1,0,.69s0,0,0,0h0a1.32,1.32,0,0,1-.12.52c0,.08.08.06.11,0a.69.69,0,0,0,.1-.19,8.92,8.92,0,0,0,.56,1.35c.14.28.3.56.42.84l-.07.08A1.24,1.24,0,0,0,62,34a2.63,2.63,0,0,0-.21.41,1.27,1.27,0,0,0-.06.86s.07,0,.06,0a1.33,1.33,0,0,1,.13-.83,2,2,0,0,1,.2-.38l.12-.15,0,0a3.62,3.62,0,0,1,.17.56,1.56,1.56,0,0,1-.12.9c0,.07.09.05.12,0A1.64,1.64,0,0,0,62.38,33.76Z" transform="translate(-7.43 -2.67)"/><path class="cls-27" d="M59.19,18.44a4.47,4.47,0,0,0-3.49-.67,2.8,2.8,0,0,0-1.52.9s0,.08,0,0a3.36,3.36,0,0,1,1.3-.76,4.68,4.68,0,0,1,.91-.09,5.32,5.32,0,0,1,1,.05,3.47,3.47,0,0,1,1.51.59,3.51,3.51,0,0,1,1,1.06,7.42,7.42,0,0,1,.68,1.52c0,.07.16,0,.14-.06A4.64,4.64,0,0,0,59.19,18.44Z" transform="translate(-7.43 -2.67)"/><path class="cls-27" d="M62.31,18.45c0-.06-.05-.07-.08,0-.16.28-.33.55-.47.84a4.85,4.85,0,0,0-.3.91,4.2,4.2,0,0,0,.15,2c0,.19.12.37.18.55a4.93,4.93,0,0,0,.22.53c0,.06.14,0,.13-.07a9.53,9.53,0,0,0-.29-.95,6.48,6.48,0,0,1-.22-1,3.77,3.77,0,0,1,.23-1.88A7.53,7.53,0,0,1,62.31,18.45Z" transform="translate(-7.43 -2.67)"/><path class="cls-27" d="M63.91,27.85c-.13-.21-.3-.39-.45-.59A5.82,5.82,0,0,1,63,26.6a5.6,5.6,0,0,1-.67-1.5,3.06,3.06,0,0,1-.12-.85s0,0-.06,0a2.75,2.75,0,0,0,0,.76,3.11,3.11,0,0,0,.23.79,6.93,6.93,0,0,0,.82,1.45,3.56,3.56,0,0,0,.56.66S63.94,27.9,63.91,27.85Z" transform="translate(-7.43 -2.67)"/><path class="cls-27" d="M64.47,31.65c0-.15-.08-.31-.11-.47a5.21,5.21,0,0,1-.1-1c0-.27,0-.54,0-.81a2.58,2.58,0,0,1,.11-.78c0-.06-.07,0-.08,0a3.61,3.61,0,0,0-.18,1.63,6.51,6.51,0,0,0,.1,1,4.05,4.05,0,0,0,.12.5,2,2,0,0,0,.17.49c0,.06.12,0,.12-.07A4.77,4.77,0,0,0,64.47,31.65Z" transform="translate(-7.43 -2.67)"/><path class="cls-27" d="M65.13,37.22l-.23.21a2.52,2.52,0,0,1-.25.21.89.89,0,0,1-.27.15l-.11,0h-.15l0,0c0-.09,0-.18.07-.27a1.67,1.67,0,0,1,.55-.83c.07-.07,0-.15-.07-.1a2.08,2.08,0,0,0-.77,1.53,3.29,3.29,0,0,1-.57,1.7,2.71,2.71,0,0,1-1.6.81,7.16,7.16,0,0,1-.93.11,5.76,5.76,0,0,1-1.09-.11,3.8,3.8,0,0,0-2.31,0,1,1,0,0,0-.66-.52,1.4,1.4,0,0,0-.64.05s-.06.08,0,.07a1,1,0,0,1,.92.2,1.48,1.48,0,0,1,.4.81,2.36,2.36,0,0,1,0,.28c0,.09,0,.2,0,.29s.11,0,.12,0a1.51,1.51,0,0,0,0-.56,2.21,2.21,0,0,0-.15-.5,4.63,4.63,0,0,1,2.06.06,6.73,6.73,0,0,0,1.09.12,5.13,5.13,0,0,0,1-.1,3.39,3.39,0,0,0,1.67-.69,2.17,2.17,0,0,0,.54-.74,3.64,3.64,0,0,0,.23-.86c0-.2.06-.41.1-.62a.39.39,0,0,0,.3,0,1.11,1.11,0,0,0,.32-.18,3.45,3.45,0,0,0,.28-.26l.21-.26S65.15,37.2,65.13,37.22Z" transform="translate(-7.43 -2.67)"/><path class="cls-27" d="M59.79,45.42a2,2,0,0,1-1.69.16,2.46,2.46,0,0,1-1.49-1,1.19,1.19,0,0,1-.1-1s0,0-.06,0a1.3,1.3,0,0,0,0,.91,1.7,1.7,0,0,0,.56.74,2.86,2.86,0,0,0,1.91.61,1.52,1.52,0,0,0,.94-.36S59.83,45.39,59.79,45.42Z" transform="translate(-7.43 -2.67)"/><path class="cls-27" d="M65.92,42.55a2.9,2.9,0,0,0-2-.56,4.73,4.73,0,0,0-1.77.46,1.49,1.49,0,0,0-.63.42,3.47,3.47,0,0,0-2.08-.63,2,2,0,0,0-1.07.38s0,.08,0,.05c1.23-.73,2.85,0,3.71,1a3.47,3.47,0,0,1,.6.92s.1,0,.09,0a2.77,2.77,0,0,0-1.23-1.62,1,1,0,0,1,.21-.15,2.64,2.64,0,0,1,.38-.18,6.93,6.93,0,0,1,.72-.26,3.83,3.83,0,0,1,1.93-.08,2.51,2.51,0,0,1,1,.43C65.87,42.73,66,42.61,65.92,42.55Z" transform="translate(-7.43 -2.67)"/><path class="cls-27" d="M70.13,41.17a1.42,1.42,0,0,0-.26-.38,2.93,2.93,0,0,0-1.52-1.89,4,4,0,0,0-1.23-.5,4.21,4.21,0,0,0-1.8.09,3.29,3.29,0,0,0-1.68.74s0,.06,0,0a3.81,3.81,0,0,1,1.46-.59,4.47,4.47,0,0,1,1.74-.16A4.15,4.15,0,0,1,68.1,39a4.3,4.3,0,0,1,1.05.8,2.48,2.48,0,0,1,.56.9,1,1,0,0,0-.41-.15s-.06,0,0,.05a1.62,1.62,0,0,1,.39.25.64.64,0,0,1,.13.15v0a0,0,0,0,0,0,0,1.4,1.4,0,0,1,.1.16,2.11,2.11,0,0,1,.17.93A2.94,2.94,0,0,1,69.36,44a1.74,1.74,0,0,1-1.22.63h0a2.11,2.11,0,0,0,.64-.72c0-.05,0-.07-.07,0a3.66,3.66,0,0,1-.59.59,2,2,0,0,1-.7.32,6.81,6.81,0,0,1-2.11.24,1.23,1.23,0,0,1-.85-.24s-.07,0,0,0a.92.92,0,0,0,.69.32A6.49,6.49,0,0,0,67.3,45a2.89,2.89,0,0,0,.8-.31s0,0,0,0a2.24,2.24,0,0,0,1.94-1.54,3.09,3.09,0,0,0,.22-1A2.16,2.16,0,0,0,70.13,41.17Z" transform="translate(-7.43 -2.67)"/><path class="cls-27" d="M74.83,42.23a4.73,4.73,0,0,0-.57-1.12,4.09,4.09,0,0,0-.61-.7l-.14-.14h-.05l0,0c-.4-.31-.83-.58-1.24-.88a8,8,0,0,1-1.14-1c-.94-1-1.45-2.42-2.53-3.34a2.57,2.57,0,0,0-.92-.53,2.17,2.17,0,0,0-1.13-.05s0,.06,0,.05a2.3,2.3,0,0,1,1,.09,2.62,2.62,0,0,1,.83.47A6.81,6.81,0,0,1,69.6,36.6c.36.55.7,1.13,1.12,1.65A10.21,10.21,0,0,0,73,40.15a5.17,5.17,0,0,1,.53.39.35.35,0,0,0,0,.08,2.59,2.59,0,0,1,.14.29,2.65,2.65,0,0,1,.15.57,3.85,3.85,0,0,1-.06,1.22s.06,0,.07,0A3.61,3.61,0,0,0,74,41.42a2.2,2.2,0,0,0-.13-.55l.18.21a5.28,5.28,0,0,1,.35.56c.12.21.21.43.33.64C74.76,42.33,74.84,42.27,74.83,42.23Z" transform="translate(-7.43 -2.67)"/><path class="cls-27" d="M76.94,41.15c-.28-.38-.56-.76-.82-1.15a8.94,8.94,0,0,1-.71-1.46c-.22-.54-.42-1.09-.67-1.62a8.61,8.61,0,0,0-1-1.51,15.42,15.42,0,0,0-1.2-1.35,3,3,0,0,0-1-.77.44.44,0,0,0-.23,0s0,0,0,0a1,1,0,0,1,.49.25c.17.14.32.3.47.45.36.38.72.77,1,1.18a10.93,10.93,0,0,1,1,1.41,14,14,0,0,1,.69,1.53,13.68,13.68,0,0,0,.66,1.52,7.84,7.84,0,0,0,.71,1.09,6.14,6.14,0,0,1,1.32,2.36,2,2,0,0,1-.19,1.31c-.19.37-.52.8-1,.72a1.14,1.14,0,0,1-.36-.15h0a3.54,3.54,0,0,0,.17-.86,5.14,5.14,0,0,0-.1-1.36A4.94,4.94,0,0,0,75.52,41c-.19-.28-.4-.56-.61-.82a6,6,0,0,0-.6-.63,6.72,6.72,0,0,1-1.19-1.36,2.46,2.46,0,0,1-.19-.4s-.1,0-.09,0a3.37,3.37,0,0,0,.94,1.39A14,14,0,0,1,75,40.52a6.8,6.8,0,0,1,1,1.77,4.67,4.67,0,0,1,.25,1.33,2.66,2.66,0,0,1-.78,2.22,1.84,1.84,0,0,1-1.2.35,4.47,4.47,0,0,1-2-.66,7.88,7.88,0,0,1-1.47-1.17l-.43-.42a2.44,2.44,0,0,1-.39-.46c0-.06-.07-.13,0-.19s0,0-.06,0,.06.31.13.41a3.12,3.12,0,0,0,.43.53,9.94,9.94,0,0,0,1.22,1.12,5.25,5.25,0,0,0,1.95.93,2.55,2.55,0,0,0,1.59-.11,1.9,1.9,0,0,0,1-1.05.94.94,0,0,0,.63.14,1,1,0,0,0,.55-.3,2.13,2.13,0,0,0,.6-1.28A3.87,3.87,0,0,0,76.94,41.15Z" transform="translate(-7.43 -2.67)"/><path class="cls-27" d="M80.36,43.33a3.69,3.69,0,0,0-.46-1,6.36,6.36,0,0,1-.61-1s-.07,0-.06,0c.19.62.64,1.12.87,1.73a3,3,0,0,1,.07,2,2.11,2.11,0,0,1-.2.43,1.52,1.52,0,0,1-.33.34s0,.1,0,.08a1.32,1.32,0,0,0,.56-.63,2.61,2.61,0,0,0,.23-.86A3.13,3.13,0,0,0,80.36,43.33Z" transform="translate(-7.43 -2.67)"/><path class="cls-27" d="M78.84,46a.42.42,0,0,0-.12,0h-.1a.49.49,0,0,1-.18-.08l.1-.13a1.85,1.85,0,0,0,.21-.45,1.11,1.11,0,0,0,0-.54c0-.06-.11,0-.12,0s0,.31-.07.46a1.76,1.76,0,0,1-.17.37,1.74,1.74,0,0,1-.57.54,2.07,2.07,0,0,1-1.58.2,1.72,1.72,0,0,1-.43-.16c-.13-.08-.24-.19-.37-.27s0,0,0,0a.75.75,0,0,0,.29.32,1.53,1.53,0,0,0,.37.21,2,2,0,0,0,.88.11,2.23,2.23,0,0,0,1.39-.65.12.12,0,0,0,.05.05.24.24,0,0,0,.11.06.48.48,0,0,0,.26,0,.09.09,0,0,0,0,0S78.86,46,78.84,46Z" transform="translate(-7.43 -2.67)"/><path class="cls-27" d="M80.15,41.06a4.77,4.77,0,0,0-.42-1.31,7.1,7.1,0,0,0-1.66-2.33,3.33,3.33,0,0,0-.56-.43,1,1,0,0,0-.51-.15,5.56,5.56,0,0,0-.29-.71,6.31,6.31,0,0,0-1.35-1.77c-.3-.29-.61-.59-.93-.87,0,0-.08,0-.06,0,.23.29.5.55.76.82s.5.53.73.81a6.43,6.43,0,0,1,1,2c.14.39.25.79.37,1.19,0,.06.11,0,.1,0A7.61,7.61,0,0,0,77,37a2.09,2.09,0,0,1,.84.54,6.46,6.46,0,0,1,.9,1,7.59,7.59,0,0,1,.73,1.19A6,6,0,0,1,80,40.87a2.93,2.93,0,0,1,.07.72,1.65,1.65,0,0,1-.19.68c0,.08.06.08.1,0A1.77,1.77,0,0,0,80.15,41.06Z" transform="translate(-7.43 -2.67)"/><path class="cls-27" d="M83.18,36a6.57,6.57,0,0,0-.81-1.38,6.33,6.33,0,0,0-1.23-1.25,5.78,5.78,0,0,0-.8-.47,6.66,6.66,0,0,0-.86-.39,4.44,4.44,0,0,0-1.07-.28,11.32,11.32,0,0,1-1.17-.14s-.07,0,0,.06a15.55,15.55,0,0,1,1.92.39,8.47,8.47,0,0,1,.87.38,6.88,6.88,0,0,1,.8.45,6.41,6.41,0,0,1,2.14,2.48,3.6,3.6,0,0,1,.47,1.68s.06,0,.07,0A2.94,2.94,0,0,0,83.18,36Z" transform="translate(-7.43 -2.67)"/><path class="cls-27" d="M83.7,38.66A3.24,3.24,0,0,0,83,37a5.19,5.19,0,0,0-1.19-1c-.51-.34-1-.63-1.52-1a0,0,0,0,0,0,0c.4.32.81.61,1.23.91a7.89,7.89,0,0,1,1.17,1,3.35,3.35,0,0,1,.79,1.44,4.59,4.59,0,0,1,.06,1.81,4,4,0,0,1-.21.75,1.21,1.21,0,0,1-.45.59s0,.09,0,.06a1,1,0,0,0,.43-.46,3.48,3.48,0,0,0,.25-.68A5.11,5.11,0,0,0,83.7,38.66Z" transform="translate(-7.43 -2.67)"/><path class="cls-27" d="M80.54,38.2a2.52,2.52,0,0,0-.21-.54,5,5,0,0,0-.71-.93s-.09,0-.07.05a5.68,5.68,0,0,1,.6.93l0,.07-.3-.26A5.79,5.79,0,0,1,79.4,37c-.3-.34-.58-.72-.85-1.09a18.7,18.7,0,0,0-1.34-2,2.72,2.72,0,0,0-1.11-.71s-.07,0,0,.06A3.48,3.48,0,0,1,77.72,35c.21.34.4.69.63,1a12.38,12.38,0,0,0,.83,1.08,4,4,0,0,0,1.09.91c0,.09.07.18.1.27s0,.18,0,.26a2.33,2.33,0,0,0,0,.28s.09,0,.1,0A.9.9,0,0,0,80.54,38.2Z" transform="translate(-7.43 -2.67)"/><path class="cls-27" d="M82.85,41.31A4.64,4.64,0,0,0,82.08,40s-.09,0-.07,0a7.47,7.47,0,0,1,.66,1.25,2.31,2.31,0,0,1,.15.68,1.57,1.57,0,0,1-.11.53,2,2,0,0,0-.44-.7c-.17-.2-.35-.39-.51-.59l-.5-.67s-.08,0-.06,0a11.3,11.3,0,0,0,.74,1.07,2.31,2.31,0,0,1,.63,1.06,1.12,1.12,0,0,1-.36,1,1.51,1.51,0,0,1-.82.42,1.2,1.2,0,0,1-1-.31s-.08,0-.06,0a1.27,1.27,0,0,0,1.81.07,1.53,1.53,0,0,0,.59-1,1,1,0,0,0,0-.38A1.37,1.37,0,0,0,82.85,41.31Z" transform="translate(-7.43 -2.67)"/><path class="cls-27" d="M82.31,38.62a1.63,1.63,0,0,0-.17-.62,3,3,0,0,0-.9-1,3.15,3.15,0,0,0-.33-.22,3.47,3.47,0,0,0-.33-.18s-.09,0,0,.06A5.6,5.6,0,0,1,81,37a4.24,4.24,0,0,1,.49.46,2.3,2.3,0,0,1,.62,1.12,1.35,1.35,0,0,1,0,.35,2.5,2.5,0,0,1-.06.38c0,.06.08,0,.09,0A1.19,1.19,0,0,0,82.31,38.62Z" transform="translate(-7.43 -2.67)"/><path class="cls-27" d="M80.41,35a1.43,1.43,0,0,0-.28-.53,3.91,3.91,0,0,0-.94-.78s-.09,0-.06.06a3.81,3.81,0,0,1,.82.78,1.35,1.35,0,0,1,.27.5.84.84,0,0,1,0,.27c0,.1,0,.19,0,.28s.1,0,.12,0A.73.73,0,0,0,80.41,35Z" transform="translate(-7.43 -2.67)"/><path class="cls-27" d="M72.93,23.11c0-.19-.09-.39-.12-.59s0-.35-.08-.52a1.58,1.58,0,0,0-.4-.9s-.09,0-.07.06a3.28,3.28,0,0,1,.49,1.73,9.58,9.58,0,0,1,.11,2.45,9.14,9.14,0,0,1-.49,2.19,5.93,5.93,0,0,1-1.12,1.87c-.52.6-1.14,1.11-1.69,1.67,0,0,0,.06,0,0,.54-.49,1.12-1,1.62-1.48a6,6,0,0,0,1.23-1.85,8.78,8.78,0,0,0,.56-2.2A7.82,7.82,0,0,0,72.93,23.11Z" transform="translate(-7.43 -2.67)"/><path class="cls-27" d="M68.32,30.4c0-.06-.09,0-.09,0a3.69,3.69,0,0,1-.15.72,3.74,3.74,0,0,1-.36.85.88.88,0,0,1-.53.47h-.12a1.69,1.69,0,0,0,.32-.8,5.46,5.46,0,0,0,.09-1.07c0-.39,0-.79,0-1.18a4.79,4.79,0,0,0-.23-1.36c-.14-.38-.37-.72-.54-1.09,0-.18,0-.36,0-.54a9.11,9.11,0,0,0,0-1.28,5.77,5.77,0,0,0-.25-1.25,4.62,4.62,0,0,0-.36-1l-.23-.39-.06-.08v0A5.45,5.45,0,0,0,66,20.6a5.67,5.67,0,0,0-.23-1.07,3.13,3.13,0,0,0-.52-1,1.05,1.05,0,0,0-1-.42s0,.06,0,0c.75,0,1.13.85,1.32,1.44a5.23,5.23,0,0,1,.1,2.83,2.84,2.84,0,0,0-.09,1.75s.09,0,.09,0a3,3,0,0,1,.13-1.5l.12.26a5.94,5.94,0,0,1,.36.91A7.29,7.29,0,0,1,66.53,25a9.36,9.36,0,0,1,0,1.3c0,.13,0,.27,0,.41s0,0,0,.05a.43.43,0,0,0,0,.11v.15a5.67,5.67,0,0,0,0,.71s.08,0,.08,0,0-.33,0-.49c.11.23.23.45.33.68a4.51,4.51,0,0,1,.28,1.32c0,.4,0,.8,0,1.2a8.71,8.71,0,0,1,0,1,3.61,3.61,0,0,1-.12.55,2.57,2.57,0,0,1-.19.41,1.06,1.06,0,0,1-.42-.42,2.49,2.49,0,0,1-.34-1c0-.06-.11,0-.11,0a2.28,2.28,0,0,0,.25,1c.15.29.38.6.73.61a.86.86,0,0,0,.69-.41,2.84,2.84,0,0,0,.42-.9A3.15,3.15,0,0,0,68.32,30.4Z" transform="translate(-7.43 -2.67)"/><path class="cls-27" d="M69.67,26.84A8.75,8.75,0,0,0,69,25.4c.07-.27.13-.55.2-.82a7.16,7.16,0,0,0,.28-2.52A3.23,3.23,0,0,0,69,20.68s-.07,0-.06,0a4.54,4.54,0,0,1,.34,1.3,4.75,4.75,0,0,1,0,1.25c-.11.86-.37,1.68-.53,2.52a5,5,0,0,0-.14,1.4c0,.05.1,0,.1,0,0-.44.1-.87.19-1.3l.06-.24c.18.44.45.83.59,1.29a6.67,6.67,0,0,1,.19.91,7.71,7.71,0,0,1,0,1c0,.06.09,0,.09,0A4,4,0,0,0,69.67,26.84Z" transform="translate(-7.43 -2.67)"/><path class="cls-27" d="M70.7,20.33a1.6,1.6,0,0,0-.4-.28,2.48,2.48,0,0,0-.49-.24.84.84,0,0,0-.47,0,.59.59,0,0,0-.37.32c0,.05,0,.05.06,0a.5.5,0,0,1,.36-.22,1.07,1.07,0,0,1,.43.09,4.23,4.23,0,0,1,.42.22,1.69,1.69,0,0,0,.38.19S70.74,20.37,70.7,20.33Z" transform="translate(-7.43 -2.67)"/><path class="cls-27" d="M76.66,27.24a12.47,12.47,0,0,1-.86,1.81,6.73,6.73,0,0,1-1.58,1.32l-.46.34a4.79,4.79,0,0,0-.41.36s0,.06,0,0a10,10,0,0,1,.85-.6c.29-.19.58-.37.86-.58a4.33,4.33,0,0,0,.77-.71,3.24,3.24,0,0,0,.52-.88c.15-.35.27-.71.4-1.07C76.82,27.17,76.69,27.18,76.66,27.24Z" transform="translate(-7.43 -2.67)"/><path class="cls-27" d="M81.47,31.26a7.66,7.66,0,0,0-.27-.72,3,3,0,0,0-.82-1.2,1.48,1.48,0,0,0-.71-.32c0-.14,0-.28,0-.42a5.14,5.14,0,0,0-.36-1.29,3.09,3.09,0,0,0-.42-.73,1.89,1.89,0,0,0-.65-.58.56.56,0,0,0-.61,0A2.52,2.52,0,0,0,77,24.63a1.23,1.23,0,0,0-.69-.45.94.94,0,0,0-.65.17,2.5,2.5,0,0,0-.57.6,6.56,6.56,0,0,0-.47.81c-.13.28-.25.55-.36.84s-.16.43-.26.64l-.06.1s0,.05.06,0c.23-.42.41-.86.63-1.29a5,5,0,0,1,.94-1.45.93.93,0,0,1,.53-.29.81.81,0,0,1,.62.27,2.79,2.79,0,0,1,.69,2.15,17.35,17.35,0,0,1-.39,2.6c0,.07.1,0,.11,0A16.18,16.18,0,0,0,77.59,27a5.34,5.34,0,0,0,0-.8.39.39,0,0,1,.23-.09.55.55,0,0,1,.3.11,2.1,2.1,0,0,1,.58.57,4.34,4.34,0,0,1,.73,1.87c.08.46.09.93.14,1.39,0,.06.12,0,.12,0a6,6,0,0,0,0-.85,2.13,2.13,0,0,1,1,.85,6.41,6.41,0,0,1,.61,1.33,3.39,3.39,0,0,0,.28.71c0,.06.14,0,.13-.07A5.25,5.25,0,0,0,81.47,31.26Z" transform="translate(-7.43 -2.67)"/><path class="cls-27" d="M79.69,31.36c-.17.21-.57.08-.78,0s-.68-.27-1-.42a3.4,3.4,0,0,0-2.41-.13,2.45,2.45,0,0,0-1.23.89s0,.05,0,0A2.72,2.72,0,0,1,75.48,31a3.3,3.3,0,0,1,1.36-.12,3.17,3.17,0,0,1,1,.3,8.11,8.11,0,0,0,1,.4c.28.07.7.15.88-.15C79.81,31.34,79.73,31.32,79.69,31.36Z" transform="translate(-7.43 -2.67)"/><g class="cls-20"><path class="cls-26" d="M79,30.61a.07.07,0,0,0-.05,0,.4.4,0,0,1-.1.15.49.49,0,0,1-.13.12l0,0h0l-.07,0h-.06l0,0h0s-.07.07,0,.1a.24.24,0,0,0,.2,0,.45.45,0,0,0,.17-.11.72.72,0,0,0,.25-.36S79,30.61,79,30.61Z" transform="translate(-7.43 -2.67)"/><path class="cls-26" d="M78.5,31Z" transform="translate(-7.43 -2.67)"/></g><path class="cls-28" d="M83.56,38.24c-.75-8.89-7.81-17.07-16.35-19.41A36.09,36.09,0,0,0,50,18.64c-4.78,1.23-10.13,3.69-12.26,8.72a9.75,9.75,0,0,0,.84,8.9,9.62,9.62,0,0,0,6.47,4.35,15.78,15.78,0,0,0,4.12,0,12.29,12.29,0,0,1,2.5,0,4.32,4.32,0,0,1,1.12.25c.34.13.66.3,1,.46s.49.24.74.33a4,4,0,0,0-.21,1.13,2.47,2.47,0,0,0,.21,1.07,3.14,3.14,0,0,0,.69,1,5.94,5.94,0,0,0,2.45,1.48,6.94,6.94,0,0,0,2.68.24,16.74,16.74,0,0,0,2.79-.53L66,45.34c.77-.18,1.55-.38,2.34-.53l.52.08A25.14,25.14,0,0,1,72.14,46a12.25,12.25,0,0,0,5.7.5,7.79,7.79,0,0,0,2.69-.91,5.78,5.78,0,0,0,2-1.92A8.76,8.76,0,0,0,83.56,38.24Zm-6.07-9.9A2,2,0,0,1,78,27.13a.26.26,0,0,1,.18-.22.4.4,0,0,1,.27.12,1.64,1.64,0,0,1,.47.9A4.38,4.38,0,0,1,79,29a2,2,0,0,1-.22.91.81.81,0,0,1-.53.41.6.6,0,0,1-.57-.35,2,2,0,0,1-.24-.79A3.53,3.53,0,0,1,77.49,28.34Zm-1.06,6.34a.29.29,0,0,1,.07-.24c.1-.12.29-.09.43,0a.77.77,0,0,1,.34.22,1.86,1.86,0,0,1,.33.41,3.33,3.33,0,0,1,.46.9,1.28,1.28,0,0,1,.06.34.73.73,0,0,1,0,.25c-.13.34-.55,0-.71-.12a3.52,3.52,0,0,1-.81-1.06C76.48,35.18,76.34,34.86,76.43,34.68Zm-3.55-6.36a4.34,4.34,0,0,1,.2-.64A1.39,1.39,0,0,1,73.6,27a0,0,0,0,1,.05,0,.55.55,0,0,1,.12.32,1.5,1.5,0,0,1,0,.37,4.63,4.63,0,0,1,.81-.95,2,2,0,0,1,.74-.46.93.93,0,0,1,.57,0c.32.12.33.52.3.81a4.19,4.19,0,0,1-.36,1.19,4.28,4.28,0,0,1-.87,1.21,5.84,5.84,0,0,1-1.55,1.15,6.52,6.52,0,0,1-1.28.53,1.49,1.49,0,0,1-.63.05.4.4,0,0,1-.34-.36.87.87,0,0,1,.31-.62c.17-.19.37-.35.55-.53a2.44,2.44,0,0,0,.32-.4,5.84,5.84,0,0,0,.33-.53Zm3.35,5a.81.81,0,0,1-.29.6c-.43.33-.94-.15-1.19-.48a1.73,1.73,0,0,1-.31-.64.41.41,0,0,1,0-.29l0,0a.43.43,0,0,1,.4-.17,1.29,1.29,0,0,1,.58.13,1.47,1.47,0,0,1,.53.36A.84.84,0,0,1,76.23,33.3ZM73.53,37h0a.53.53,0,0,1,.44.13,2.52,2.52,0,0,1,.51.62,2,2,0,0,1,.18.32.84.84,0,0,1,.07.24.69.69,0,0,1,0,.49c-.18.25-.55-.06-.7-.2a2.68,2.68,0,0,1-.68-1,.62.62,0,0,1-.06-.42A.31.31,0,0,1,73.53,37ZM69.89,22.46c0-.09,0-.2,0-.3h0a1.15,1.15,0,0,1,.3-.65.66.66,0,0,1,.66-.13,1.71,1.71,0,0,1,.78.45,3.3,3.3,0,0,1,.73,1.75,8.26,8.26,0,0,1,.08,1c0,.28,0,.56,0,.84a5.62,5.62,0,0,1-.32,1.67,1.88,1.88,0,0,1-.43.75.83.83,0,0,1-.68.28.87.87,0,0,1-.58-.46,3.14,3.14,0,0,1-.31-.84A13.14,13.14,0,0,1,70,24.29c0-.27,0-.53,0-.8,0-.1,0-.21,0-.31A3.47,3.47,0,0,1,69.89,22.46Zm-.42,5.95A1.36,1.36,0,0,1,69,29.88a.71.71,0,0,1-.62,0,.79.79,0,0,1-.35-.43,1.68,1.68,0,0,1-.12-.66,2.61,2.61,0,0,1,.11-.68,1,1,0,0,1,.32-.46.46.46,0,0,1,.41,0,.38.38,0,0,1,.43.12A1.25,1.25,0,0,1,69.47,28.41Zm-3-7.82a1.31,1.31,0,0,1,.34-.59.79.79,0,0,1,.17-.2c.44-.36,1,.13,1.26.47a2.37,2.37,0,0,1,.22.33,2.4,2.4,0,0,1,.17.4,5.11,5.11,0,0,1,.26,1.22,5.72,5.72,0,0,1,0,1.24c0,.14-.06.27-.08.41s0,.26-.07.39c-.06.3-.11.61-.19.9a2.15,2.15,0,0,1-.31.73.65.65,0,0,1-.42.26.4.4,0,0,1-.34-.13,1.25,1.25,0,0,1-.24-.4A3.92,3.92,0,0,1,67,25a12,12,0,0,1-.15-1.33l0-.56c0-.12,0-.24,0-.36a8.81,8.81,0,0,0-.33-1.11A1.73,1.73,0,0,1,66.44,20.59Zm-.63,7.81a1.2,1.2,0,0,1,.46.87,3,3,0,0,1-.07,1.16,1.08,1.08,0,0,1-.47.71.51.51,0,0,1-.53-.05,1.38,1.38,0,0,1-.39-.56,2.27,2.27,0,0,1-.17-.77,1.05,1.05,0,0,1,.49-1.1.21.21,0,0,0,0-.06.64.64,0,0,1,.28-.26A.36.36,0,0,1,65.81,28.4Zm-.74,4a.27.27,0,0,1,.07-.08.19.19,0,0,1,.27,0,.59.59,0,0,1,.19.32,1.6,1.6,0,0,1,0,1,.55.55,0,0,1-.27.31.33.33,0,0,1-.36,0,.54.54,0,0,1-.2-.33,1.61,1.61,0,0,1,0-.49.94.94,0,0,1,.3-.63S65.07,32.44,65.07,32.43ZM55.87,18.7a.59.59,0,0,1,.37-.2,2.08,2.08,0,0,1,1,.11,4.15,4.15,0,0,1,2,1.5,5.75,5.75,0,0,1,1,2.45c.05.24.08.48.11.72a6.59,6.59,0,0,0,.1.76A4.11,4.11,0,0,0,61,25.26a7.74,7.74,0,0,1,.44.8,6.3,6.3,0,0,1,.34.89,1.7,1.7,0,0,1,.07.84.4.4,0,0,1-.45.35c-.22-.05-.36-.3-.46-.48a7.52,7.52,0,0,1-.32-.78,6.06,6.06,0,0,0-.91-1.7A2.78,2.78,0,0,0,57.86,24a0,0,0,0,1,0,0,7.16,7.16,0,0,0-.63-3.12c-.06-.13-.12-.25-.19-.37a6.68,6.68,0,0,0-.49-.57,4.35,4.35,0,0,0-.38-.36,1.29,1.29,0,0,1-.33-.4A.45.45,0,0,1,55.87,18.7ZM59.94,33a.94.94,0,0,1,.13-.4,1,1,0,0,1,.16-.39.47.47,0,0,1,.57-.12,1.13,1.13,0,0,1,.47.64,3.49,3.49,0,0,1,.19.85,1.14,1.14,0,0,1-.2.84.54.54,0,0,1-.7.12,1.27,1.27,0,0,1-.35-.38,2.2,2.2,0,0,1-.15-.31A2.25,2.25,0,0,1,59.94,33Zm-.12-2.43a.71.71,0,0,1-.65,0,2.66,2.66,0,0,1-.64-.43,3.73,3.73,0,0,1-.45-.44,7,7,0,0,1-.86-1.24A6.69,6.69,0,0,1,56.58,27a2.81,2.81,0,0,1-.12-1.35s0,0,.06,0a.39.39,0,0,1,.2-.31.63.63,0,0,1,.52,0,2.88,2.88,0,0,1,.75.45,5,5,0,0,1,1.16,1.37,10.71,10.71,0,0,1,.69,1.45,6.23,6.23,0,0,1,.24.73,1.79,1.79,0,0,1,.07.73A.69.69,0,0,1,59.82,30.59ZM54,19.78a.36.36,0,0,1,0-.09c.2-.27.56.07.71.23a3,3,0,0,1,.35.5,1.62,1.62,0,0,1,.2.53.54.54,0,0,1-.07.41.33.33,0,0,1-.36.11,1.19,1.19,0,0,1-.42-.28,2.32,2.32,0,0,1-.35-.49c-.13-.24-.3-.65-.1-.89C54,19.8,54,19.8,54,19.78Zm-2.75-.53a.31.31,0,0,1,.19-.18s0,0,0,0c.17-.35.69,0,.89.11a3.1,3.1,0,0,1,.46.35,4.38,4.38,0,0,1,.41.45,6.67,6.67,0,0,1,.93,1.67,7.36,7.36,0,0,1,.48,1.9,5.54,5.54,0,0,1,0,.91,3.54,3.54,0,0,1-.08.45.83.83,0,0,1-.16.29c-.19.17-.42,0-.56-.15a2.79,2.79,0,0,1-.52-.9c-.12-.34-.21-.69-.31-1s-.18-.7-.31-1.05a3.69,3.69,0,0,0-.5-1c-.08-.12-.18-.23-.27-.35a4,4,0,0,1-.62-1A.67.67,0,0,1,51.22,19.25ZM48.29,20.6a.75.75,0,0,1,.22-.36.35.35,0,0,1,.38,0l0,0a.81.81,0,0,1,.29.12,1.24,1.24,0,0,1,.43.53.87.87,0,0,1,0,.69.9.9,0,0,1-.55.46.6.6,0,0,1-.49,0,.73.73,0,0,1-.29-.36A1.64,1.64,0,0,1,48.29,20.6Zm-.19,3.06a2.15,2.15,0,0,1,.32-1,.63.63,0,0,1,.31-.25.36.36,0,0,1,.32.07.78.78,0,0,1,.26.36,1.83,1.83,0,0,1,.15.6,7.17,7.17,0,0,1,0,1.39,7.3,7.3,0,0,0,0,1.4,4.21,4.21,0,0,0,.32,1.1c.15.37.31.74.43,1.12a2.52,2.52,0,0,1,.12,1.09s0,0,0,0a1,1,0,0,1-.83-.44,4.54,4.54,0,0,1-.55-.89,8.18,8.18,0,0,1-.39-1,6.75,6.75,0,0,1-.3-2.23l0-.19A5.11,5.11,0,0,1,48.1,23.66Zm-3.26-1.33a2.18,2.18,0,0,1,.22-.71,1.08,1.08,0,0,1,.44-.48.89.89,0,0,1,.68-.05,1.18,1.18,0,0,1,.69.55,3,3,0,0,1,.39,1,7.41,7.41,0,0,1,.18,1.24c0,.41.06.82.07,1.24s0,.66.05,1,.06.45.1.67.12.63.2.94a5.74,5.74,0,0,0,.31.91c.07.15.14.29.22.43s.17.27.26.41A5.61,5.61,0,0,0,50,30.93a3.66,3.66,0,0,1,.66.58c.09.12.23.32.16.47s-.2.14-.31.13A1.84,1.84,0,0,1,50,32a5.29,5.29,0,0,1-1.38-.65,8.09,8.09,0,0,1-1.38-1.23,9.43,9.43,0,0,1-1.13-1.6,8.53,8.53,0,0,1-.78-1.81,7.07,7.07,0,0,1-.26-2,5.75,5.75,0,0,1-.26-1.48A4.69,4.69,0,0,1,44.84,22.33Zm-1.08,6.82A1.06,1.06,0,0,1,44,28.7a.82.82,0,0,1,.09-.19l.05,0a1,1,0,0,1,.49.59,5.08,5.08,0,0,1,.29,1A6.74,6.74,0,0,1,45,31.15a5.35,5.35,0,0,1,0,1,1.09,1.09,0,0,1-.21.61.07.07,0,0,1-.06,0,1.51,1.51,0,0,1-.47-.64,6.06,6.06,0,0,1-.34-1,6.48,6.48,0,0,1-.19-1.07A3.21,3.21,0,0,1,43.76,29.15Zm-2.33-3.9a4,4,0,0,1,.28-.95,2.76,2.76,0,0,1,.08-.27,1.7,1.7,0,0,1,.56-.85.78.78,0,0,1,.52-.17.56.56,0,0,1,.39.26,1.67,1.67,0,0,1,.21.52,3.38,3.38,0,0,1,.09.54,4.3,4.3,0,0,1,0,.88,7.9,7.9,0,0,1-.21,1c-.18.67-.42,1.33-.54,2a5.6,5.6,0,0,0,.07,2.12c0,.27.14.53.18.8a1.08,1.08,0,0,1-.08.73s0,0-.05,0l-.15,0a1.22,1.22,0,0,1-.49-.44,3.49,3.49,0,0,1-.35-.76,9,9,0,0,1-.4-1.71c-.07-.52-.14-1-.18-1.56A8.83,8.83,0,0,1,41.43,25.25Zm-1.71,9a.24.24,0,0,1-.31.16.88.88,0,0,1-.4-.34,4.34,4.34,0,0,1-.41-.64,4.89,4.89,0,0,1-.3-.75,2.11,2.11,0,0,1-.1-.66.45.45,0,0,1,.23-.38h0a.25.25,0,0,1,0-.07,0,0,0,0,1,0,0l.11,0a1.26,1.26,0,0,1,.44.45,5.06,5.06,0,0,1,.66,1.62A1.15,1.15,0,0,1,39.72,34.24Zm6.91,4.69a.39.39,0,0,1-.19.23,1.37,1.37,0,0,1-.44.16,2,2,0,0,1-.9,0,4.64,4.64,0,0,1-1.73-.94,6.89,6.89,0,0,1-.7-.62A6.43,6.43,0,0,1,42,37a8.6,8.6,0,0,1-1.18-2.06,5.41,5.41,0,0,1-.32-1.11,3,3,0,0,0-.11-.54,2.18,2.18,0,0,0-.22-.43c-.18-.29-.4-.55-.56-.85s-.26-.47-.37-.71a9.12,9.12,0,0,1-.61-1.68,4.09,4.09,0,0,1-.08-1.74,2,2,0,0,1,.32-.74,1.55,1.55,0,0,1,.53-.49.59.59,0,0,1,.47,0l.07,0a.65.65,0,0,1,.35.24,2.09,2.09,0,0,1,.3.55,4.76,4.76,0,0,1,.3,1.18c.12.9.11,1.82.24,2.72a8.81,8.81,0,0,0,.54,2,9.81,9.81,0,0,0,1,1.9A9.24,9.24,0,0,0,44,36.83,7.17,7.17,0,0,0,45.7,38a3.44,3.44,0,0,1,.65.42C46.49,38.54,46.68,38.72,46.63,38.93Zm2.71.3a.42.42,0,0,1-.2.27.71.71,0,0,1-.43,0,1.93,1.93,0,0,1-.82-.35,5,5,0,0,1-.73-.56c-.32-.3-.9-.92-.39-1.31a.37.37,0,0,1,.39-.25,1.51,1.51,0,0,1,.69.27,5,5,0,0,1,.7.51,2.76,2.76,0,0,1,.43.41A1.27,1.27,0,0,1,49.34,39.23Zm.39-1.79a2.23,2.23,0,0,1-.76-.27l-.77-.41-.59-.3-.09,0c-.32-.11-.65-.21-1-.35a2.38,2.38,0,0,1-.44-.25.38.38,0,0,1-.18-.28.36.36,0,0,1,.23-.29,1.13,1.13,0,0,1,.6-.14,4.89,4.89,0,0,1,1.52.3,3.34,3.34,0,0,1,.44.17,3.87,3.87,0,0,1,.34.21,6.89,6.89,0,0,1,.85.66,2.67,2.67,0,0,1,.31.36.62.62,0,0,1,.14.32C50.38,37.44,49.93,37.46,49.73,37.44Zm2-1.95a.6.6,0,0,1-.47.31,1.34,1.34,0,0,1-.65-.14,3.14,3.14,0,0,1-1.2-1c-.18-.25-.41-.72,0-.89a.78.78,0,0,1,.56-.13,1.79,1.79,0,0,1,.4.09l.39.21a3,3,0,0,1,.86.72.93.93,0,0,1,.2.44A.6.6,0,0,1,51.69,35.49Zm.25-8.41a.67.67,0,0,1-1,.19,1.23,1.23,0,0,1-.35-.49,3.48,3.48,0,0,1-.21-.62,7.35,7.35,0,0,1-.28-2.28,2.81,2.81,0,0,1,.27-1.14,1.47,1.47,0,0,1,.62-.64L51,22a.29.29,0,0,1,.38-.12.89.89,0,0,1,.36.36,3.35,3.35,0,0,1,.25.62c.09.29.16.59.22.88a7.35,7.35,0,0,1,.11,1.81,5,5,0,0,1-.13.86A2.26,2.26,0,0,1,51.94,27.08Zm.32,1.13a3.09,3.09,0,0,1,0-.43.91.91,0,0,1,.1-.33.35.35,0,0,1,.14-.13l.12-.16a.57.57,0,0,1,.5-.13,1.52,1.52,0,0,1,.94.83,3.63,3.63,0,0,1,.4,1.23,1.34,1.34,0,0,1-.15,1,.62.62,0,0,1-.69.12,1.93,1.93,0,0,1-.78-.51,1.68,1.68,0,0,1-.43-.68A3.37,3.37,0,0,1,52.26,28.21Zm.29,3.71a.52.52,0,0,1,.33-.22h0a.77.77,0,0,1,.27-.07,1.85,1.85,0,0,1,.66.09,4.51,4.51,0,0,1,.64.26,3.24,3.24,0,0,1,.75.52,5.7,5.7,0,0,1,.73.82,3.25,3.25,0,0,1,.54,1,.81.81,0,0,1-.1.81c-.33.35-.79-.06-1-.29a4.1,4.1,0,0,0-.71-.46l-.78-.41a4.09,4.09,0,0,1-1.1-.83,1.37,1.37,0,0,1-.31-.55A.83.83,0,0,1,52.55,31.92Zm2.28,6.93a1.53,1.53,0,0,1-.89-.18,2.51,2.51,0,0,1-.78-.59,2,2,0,0,1-.44-.71,1.9,1.9,0,0,1,0-.58,1.8,1.8,0,0,1,0-.22s-.06,0,0,0a3.38,3.38,0,0,1,.08-.34,1.31,1.31,0,0,1,.6-.78,1.14,1.14,0,0,1,.85,0,2.5,2.5,0,0,1,.86.54,3,3,0,0,1,.66.87,1.75,1.75,0,0,1,.22.95,1.1,1.1,0,0,1-.43.81A1.23,1.23,0,0,1,54.83,38.85ZM57,42a.75.75,0,0,1-.39.45.69.69,0,0,1-.57.09.93.93,0,0,1-.51-.88.69.69,0,0,1,.3-.67c.16-.28.56-.06.74.08A1,1,0,0,1,57,42Zm.49-9a2,2,0,0,1-.82-.47,4.18,4.18,0,0,1-.67-.78A1.75,1.75,0,0,1,55.67,30a.36.36,0,0,1,.07-.26.41.41,0,0,1,.27-.13,1.27,1.27,0,0,1,.74.15,1.61,1.61,0,0,1,.36.27,3.24,3.24,0,0,1,.45.53,4.27,4.27,0,0,1,.57,1.27,2.12,2.12,0,0,1,.11.61.74.74,0,0,1-.1.41A.55.55,0,0,1,57.51,33Zm3,11.79a1.33,1.33,0,0,1-.85.15,2.19,2.19,0,0,1-.56-.14,2.22,2.22,0,0,1-.61-.32.75.75,0,0,1-.33-.74,1,1,0,0,1,.53-.62,1.69,1.69,0,0,1,1-.21,1.65,1.65,0,0,1,.44.1.92.92,0,0,1,.56.11.83.83,0,0,1,.36.5A1.09,1.09,0,0,1,60.48,44.8ZM63,38.37a1.81,1.81,0,0,1-1,1.35,4.08,4.08,0,0,1-1.8.56,2.09,2.09,0,0,1-1.55-.42.68.68,0,0,1-.24-.72,1.6,1.6,0,0,1,.57-.72,5,5,0,0,1,1-.62,5.5,5.5,0,0,1,1.19-.38,2.34,2.34,0,0,1,1,0,.66.66,0,0,1,.36.19.71.71,0,0,1,.14.1A.85.85,0,0,1,63,38.37Zm.62-5a.77.77,0,0,1-.14.38.34.34,0,0,1-.49,0,2.4,2.4,0,0,1-.55-.64,2.47,2.47,0,0,1-.34-.69,3.28,3.28,0,0,1-.14-.56l0-.19v0a1.63,1.63,0,0,1,0-.54.31.31,0,0,1,.14-.21.11.11,0,0,1,.07,0,.31.31,0,0,1,.33-.11,1,1,0,0,1,.46.33,2.1,2.1,0,0,1,.34.5,3.47,3.47,0,0,1,.34,1.23A2.25,2.25,0,0,1,63.62,33.34ZM63.34,26a3,3,0,0,1-.21-.49,3.21,3.21,0,0,1-.15-.82c0-.28,0-.55-.07-.83a4.4,4.4,0,0,0-.15-.79,12.86,12.86,0,0,1-.44-1.46,2.64,2.64,0,0,1,0-.93,3.69,3.69,0,0,1,.28-.87,1.94,1.94,0,0,1,.21-.34,1.07,1.07,0,0,1,.4-.39,1,1,0,0,1,.71,0,1.84,1.84,0,0,1,1.11,1.32c.27,1.05-.26,2.1-.2,3.15a2.93,2.93,0,0,0,.18.83c.09.33.2.66.29,1a5,5,0,0,1,.18,1,1.33,1.33,0,0,1-.13.79.67.67,0,0,1-.69.31,1.44,1.44,0,0,1-.8-.57A5,5,0,0,1,63.34,26Zm3,18a.57.57,0,0,1-.42.47,1.67,1.67,0,0,1-.77,0,2.63,2.63,0,0,1-.72-.28,1.16,1.16,0,0,1-.24-.2,1,1,0,0,1-.25-.39.44.44,0,0,1,.2-.52,1,1,0,0,1,.54-.13,2,2,0,0,1,.6,0,1.84,1.84,0,0,1,.77.34A.72.72,0,0,1,66.31,44ZM69,41.87a1,1,0,0,1-.2.59.58.58,0,0,1-.56.21,1.85,1.85,0,0,1-.85-.45,3.48,3.48,0,0,0-1-.39,8.75,8.75,0,0,1-1.51-.45,1.13,1.13,0,0,1-.76-.9,1.32,1.32,0,0,1,.87-1.12,1.92,1.92,0,0,1,.48-.15,2.14,2.14,0,0,1,.89-.23,2.41,2.41,0,0,1,1.33.39,2.9,2.9,0,0,1,1,1.07,2.73,2.73,0,0,1,.27.72A2.13,2.13,0,0,1,69,41.87Zm.44-3.51a.31.31,0,0,1-.07.22c-.1.1-.28,0-.36-.08a6.14,6.14,0,0,1-.6-.53,1.5,1.5,0,0,0-.24-.2,1.65,1.65,0,0,0-.53-.13,4.06,4.06,0,0,1-1.1-.16,1.06,1.06,0,0,1-.58-.52,1.46,1.46,0,0,1,.15-1.37,1.38,1.38,0,0,1,.83-.63.89.89,0,0,1,.73-.14,1.56,1.56,0,0,1,.74.58,4.44,4.44,0,0,1,.57,1,7.19,7.19,0,0,1,.36,1.11A2.86,2.86,0,0,1,69.42,38.36Zm0-3.2a2.58,2.58,0,0,1-.5-1,.75.75,0,0,1,0-.42.68.68,0,0,1,.17-.21.63.63,0,0,1,.34-.3,1.28,1.28,0,0,1,.7,0,3.47,3.47,0,0,1,1.57.86,6.86,6.86,0,0,1,.65.67,4.88,4.88,0,0,1,.49.7A1.24,1.24,0,0,1,73,36.62a1,1,0,0,1-.86.4,2.35,2.35,0,0,1-1.23-.36,4.39,4.39,0,0,1-.71-.58A7.11,7.11,0,0,1,69.38,35.16ZM71,41.82a3.35,3.35,0,0,1-.29-.44,2.37,2.37,0,0,1-.25-.82,1.69,1.69,0,0,1,0-.23.68.68,0,0,1,0-.14.51.51,0,0,1,.14-.41.62.62,0,0,1,.41-.16,1.71,1.71,0,0,1,1.14.4,2.84,2.84,0,0,1,.81,1.06,1.92,1.92,0,0,1,.22,1.05.74.74,0,0,1-.17.42.73.73,0,0,1-.44.23,1.44,1.44,0,0,1-1.09-.47A4.22,4.22,0,0,1,71,41.82Zm4,3.44a1,1,0,0,1-.44.44,1.34,1.34,0,0,1-.71.12,2.9,2.9,0,0,1-1.39-.61,3.65,3.65,0,0,1-.7-.66,1.94,1.94,0,0,1-.31-.44.91.91,0,0,1-.11-.45.48.48,0,0,1,.23-.39.68.68,0,0,1,.2-.07,2.51,2.51,0,0,1,.94-.21,2.59,2.59,0,0,1,1.15.3,2.47,2.47,0,0,1,1,.8A1.13,1.13,0,0,1,75.06,45.26ZM78,41.47s0,0,0,0a.66.66,0,0,1-.19-.09A3,3,0,0,1,76.65,40c-.28-.61-.48-1.25-.72-1.88A9.21,9.21,0,0,0,74.76,36l-.39-.52c-.11-.11-.22-.23-.32-.35a2.17,2.17,0,0,1-.51-.83.59.59,0,0,1,0-.37.47.47,0,0,1,.34-.33.56.56,0,0,1,.25,0,1.46,1.46,0,0,1,.25.13,1.68,1.68,0,0,1,.42.42,11,11,0,0,1,.67,1.09l.4.65c.12.2.24.42.34.63a7.7,7.7,0,0,1,.53,1.38,11.21,11.21,0,0,0,.61,1.58c.09.18.17.36.26.53s.18.34.26.51a1.91,1.91,0,0,1,.19.52A.56.56,0,0,1,78,41.47Zm.24-1.39,0-.06,0-.06a1.15,1.15,0,0,1-.2-.63,1.21,1.21,0,0,1,0-.19.24.24,0,0,1,.28-.18.77.77,0,0,1,.44.22,1.44,1.44,0,0,1,.39.49,1.22,1.22,0,0,1,.14.65c0,.14-.08.3-.24.31a.75.75,0,0,1-.42-.2,2.35,2.35,0,0,1-.3-.33Zm1.43,3.79a.76.76,0,0,1-.39.52.45.45,0,0,1-.42,0,.79.79,0,0,1-.32-.36,2.38,2.38,0,0,1-.21-.56,2.56,2.56,0,0,1-.06-.62,1.47,1.47,0,0,1,.08-.51.38.38,0,0,1,.28-.24.62.62,0,0,1,.46.18s0,0,0,0a1.27,1.27,0,0,1,.44.63A1.75,1.75,0,0,1,79.67,43.87Zm-.12-8a.57.57,0,0,1-.29,0,2,2,0,0,1-.42-.2,4,4,0,0,1-.7-.6,3.67,3.67,0,0,1-.64-.88,3.05,3.05,0,0,1-.13-.32s0,0,0,0a1.17,1.17,0,0,1-.1-.26.63.63,0,0,1,0-.45.43.43,0,0,1,.35-.23,1.06,1.06,0,0,1,.55.12,2.73,2.73,0,0,1,.52.37,3.58,3.58,0,0,1,.65.75,3.31,3.31,0,0,1,.31.66,1.79,1.79,0,0,1,.13.68A.38.38,0,0,1,79.55,35.83ZM80.2,32a.23.23,0,0,1,.21-.19.05.05,0,0,1,0,.07c.17-.1.41,0,.55.14a1.38,1.38,0,0,1,.31.33.7.7,0,0,1,.14.36.26.26,0,0,1-.17.24.42.42,0,0,1-.35,0,1.38,1.38,0,0,1-.65-.59A.5.5,0,0,1,80.2,32Zm.34,2.17a0,0,0,0,1,0,0h0c.12-.3.56,0,.73.07a3.47,3.47,0,0,1,.42.34,1.48,1.48,0,0,1,.29.37.31.31,0,0,1,0,.32.31.31,0,0,1-.28.14,1.28,1.28,0,0,1-.42-.13,2.47,2.47,0,0,1-.42-.3C80.72,34.74,80.46,34.45,80.54,34.15ZM82.1,43.2a1,1,0,0,1-.11.33.87.87,0,0,1-.17.21c-.3.23-.62-.13-.77-.36a3.14,3.14,0,0,1-.47-1.15.78.78,0,0,1,0-.43.24.24,0,0,1,.25-.1c.13-.15.35,0,.48.06a2.15,2.15,0,0,1,.54.66A1.34,1.34,0,0,1,82.1,43.2Z" transform="translate(-7.43 -2.67)"/><path class="cls-28" d="M54.81,43.94a3.3,3.3,0,0,1,0-1.13,4.89,4.89,0,0,1,.49-1.32,8.94,8.94,0,0,1,1.61-2.16A5.51,5.51,0,0,1,59,38a2.3,2.3,0,0,0-.9.06,3.51,3.51,0,0,0-1,.43,0,0,0,0,1-.07,0,4.08,4.08,0,0,0-.19-.84,3.57,3.57,0,0,0-.66-1.17,5.09,5.09,0,0,0-.51-.53c.09.11.16.23.24.34a5.55,5.55,0,0,1,.46.95,2.12,2.12,0,0,1,0,1.84,1.45,1.45,0,0,1-.72.57,1.42,1.42,0,0,1-.84,0,3.4,3.4,0,0,1-1.56-1.08,7.66,7.66,0,0,1-.93-1.27,6.44,6.44,0,0,1,.1,1.75s-.06,0-.08,0a3.66,3.66,0,0,1-.28-.56,4.15,4.15,0,0,0-.54-1l-.07-.08a2.64,2.64,0,0,1,.13.46,1.71,1.71,0,0,1-.26,1.3,2.15,2.15,0,0,1-1.22.77,3.71,3.71,0,0,1-1.52,0,4.59,4.59,0,0,1-1.21-.37,6.53,6.53,0,0,0,1,.76,0,0,0,0,1,0,.09q-.68,0-1.35.09c-.65,0-1.3.09-2,.07a16.15,16.15,0,0,0,4.11,0,12.29,12.29,0,0,1,2.5,0,4.32,4.32,0,0,1,1.12.25c.34.13.66.3,1,.46s.49.24.74.33a4,4,0,0,0-.21,1.13,2.47,2.47,0,0,0,.21,1.07,2.86,2.86,0,0,0,.46.74A4,4,0,0,1,54.81,43.94Z" transform="translate(-7.43 -2.67)"/><path class="cls-28" d="M58.65,45.77a3.32,3.32,0,0,1-1.8-.85,1.85,1.85,0,0,1-.49-.8,2.26,2.26,0,0,1-.08-.44,1.94,1.94,0,0,0,0,.59,2.35,2.35,0,0,0,1.3,1.79,2.09,2.09,0,0,0,1.1.22,2,2,0,0,0,1-.44A5.05,5.05,0,0,1,58.65,45.77Z" transform="translate(-7.43 -2.67)"/><path class="cls-28" d="M65.48,35.4a8,8,0,0,0,.85-.79,8.94,8.94,0,0,1,.89-.85,6.67,6.67,0,0,1,2.09-1.15,5.42,5.42,0,0,1,2.15-.23l-.06,0a2.28,2.28,0,0,0-1.16-.12,5.77,5.77,0,0,0-1.22.32c-.37.14-.75.3-1.11.46s-.85.39-1.26.61a8.77,8.77,0,0,0-1.16.74c-.28.21-.55.43-.81.65a12.61,12.61,0,0,1-1.82,1.35,4,4,0,0,1-1,.44,6.38,6.38,0,0,0,1.72-.33A6.15,6.15,0,0,0,65.48,35.4Z" transform="translate(-7.43 -2.67)"/><path class="cls-28" d="M81.69,33.59a8.19,8.19,0,0,0-1-.67,5.58,5.58,0,0,0-1-.5,2.2,2.2,0,0,0-.88-.18l.16.06a8.49,8.49,0,0,1,2.38,1.39,6.63,6.63,0,0,1,1.39,1.55,1.51,1.51,0,0,1,.31.83.24.24,0,0,1-.27.25,1.27,1.27,0,0,1-.55-.2,7.15,7.15,0,0,1-.68-.44l-.64-.48-.18-.14c.16.18.33.35.49.51a10.93,10.93,0,0,1,1.44,1.53,2.51,2.51,0,0,1,.42.87,1.64,1.64,0,0,1-.06.93,0,0,0,0,1-.08,0c-.15-.16-.29-.34-.43-.52a9.39,9.39,0,0,0-.76-.91A2.59,2.59,0,0,0,80.9,37l.32.26a3.92,3.92,0,0,1,.9,1.05,1.23,1.23,0,0,1,.08,1.19s0,0,0,0a1.63,1.63,0,0,1-.68-.49,2.72,2.72,0,0,0-.56-.51c.3.42.69.76,1,1.16a2.49,2.49,0,0,1,.58,1.25c0,.1,0,.23-.06.3s-.17,0-.25,0a1.81,1.81,0,0,1-.33-.2c-.13-.1-.25-.21-.37-.32l-.34-.31-.1-.09a4.21,4.21,0,0,0,.66.85,4.32,4.32,0,0,1,.68.91,1.35,1.35,0,0,1,.11.32,2.29,2.29,0,0,1,.08.28,3.31,3.31,0,0,1,0,.89,8.84,8.84,0,0,0,1-5.28A21.16,21.16,0,0,0,83,35a6,6,0,0,0-.44-.56A6.23,6.23,0,0,0,81.69,33.59Z" transform="translate(-7.43 -2.67)"/><path class="cls-28" d="M74.63,26.29c.07-.11.14-.22.2-.33s.22-.38.34-.56a1.28,1.28,0,0,1,.77-.62,1.14,1.14,0,0,1,1,.56,3.16,3.16,0,0,1,.46,1.33,11.69,11.69,0,0,1,.1,1.19,2.9,2.9,0,0,0,.14-.77,4.9,4.9,0,0,0-.51-2.34,23.36,23.36,0,0,0-5.77-4.29c.14.27.28.55.41.84a12.17,12.17,0,0,1,.58,1.45,7.78,7.78,0,0,1,.35,1.59,11.64,11.64,0,0,1-.06,3.12A6,6,0,0,0,73,25.32a10.81,10.81,0,0,1,0-1.8,1,1,0,0,1,.3-.62.61.61,0,0,1,.64-.11,1.1,1.1,0,0,1,.44.51,3.52,3.52,0,0,1,.25.71,4,4,0,0,1,.12,1A10.38,10.38,0,0,1,74.63,26.29Z" transform="translate(-7.43 -2.67)"/><path class="cls-28" d="M61.72,41.44a2.12,2.12,0,0,0,.83-.12,1.7,1.7,0,0,0,.71-.5,3.18,3.18,0,0,0,.48-.89,2.3,2.3,0,0,1,.49-.84,2.05,2.05,0,0,1,1-.46c.35-.07.71-.09,1.06-.15a1.47,1.47,0,0,0-.42-.13,2.18,2.18,0,0,0-1.8.6,0,0,0,0,1-.08,0c-.12-.49.07-1,0-1.51-.22.37-.38.76-.56,1.14a5.54,5.54,0,0,1-.63,1.08,2.12,2.12,0,0,1-1,.7,4.83,4.83,0,0,1-1.74.13,4.13,4.13,0,0,0-1.64.19,9.1,9.1,0,0,1,1.45.38A7.07,7.07,0,0,0,61.72,41.44Z" transform="translate(-7.43 -2.67)"/><path class="cls-28" d="M65.51,41.87a3.81,3.81,0,0,0-1.71-.16,5.12,5.12,0,0,0-1.58.41,1.31,1.31,0,0,1-.83.23c-.16,0-.3-.11-.46-.16a3.35,3.35,0,0,0-.55-.11,2,2,0,0,0-1.6.47,4.07,4.07,0,0,1,.7-.1,3.09,3.09,0,0,1,1.17.11,2.8,2.8,0,0,1,1.07.65A5.3,5.3,0,0,1,63,45.1c0-.13,0-.26,0-.4A2.57,2.57,0,0,0,62.23,43a0,0,0,0,1,0-.07,5.22,5.22,0,0,1,.93-.35A4.87,4.87,0,0,1,65,42.39a2.6,2.6,0,0,1,1.48.65s0-.06,0-.09a1.38,1.38,0,0,0-.35-.69A1.63,1.63,0,0,0,65.51,41.87Z" transform="translate(-7.43 -2.67)"/><path class="cls-29" d="M40,30.79c-.15-.29-.28-.58-.4-.88a8,8,0,0,1-.48-1.86c0-.09-.14,0-.15.05a3.56,3.56,0,0,0,0,1,5.11,5.11,0,0,0,.25.95,9.34,9.34,0,0,0,.41.91,2.69,2.69,0,0,0,.58.8s.12,0,.11-.08A3.4,3.4,0,0,0,40,30.79Z" transform="translate(-7.43 -2.67)"/><path class="cls-29" d="M42.08,36c-.13-.28-.32-.53-.47-.81a3.17,3.17,0,0,1-.21-.41l-.09-.21s-.07-.14-.13-.15a.11.11,0,0,0-.11,0c-.09.12,0,.32,0,.46a2.55,2.55,0,0,0,.2.48,2,2,0,0,0,.61.78C42,36.24,42.14,36.1,42.08,36Z" transform="translate(-7.43 -2.67)"/><g class="cls-30"><path class="cls-26" d="M42.76,24.38a1,1,0,0,0,0-.34.16.16,0,0,0-.2-.09.89.89,0,0,0-.56.73.36.36,0,0,0,0,.11,1.59,1.59,0,0,0-.06.57.75.75,0,0,0,0,.16h0a.1.1,0,0,0,0,.07l.07.06a.33.33,0,0,0,.39,0,1.1,1.1,0,0,0,.31-.78A3.46,3.46,0,0,0,42.76,24.38Z" transform="translate(-7.43 -2.67)"/><polygon class="cls-26" points="35.09 21.65 35.08 21.65 35.09 21.64 35.09 21.65 35.09 21.65"/><polygon class="cls-26" points="35.09 21.64 35.09 21.64 35.09 21.64 35.1 21.64 35.09 21.64"/></g><path class="cls-29" d="M42,26.62s0,0,0,0,0,0,0,0h-.13l0,0a.27.27,0,0,0-.07.08.08.08,0,0,0,0,.05v0a.13.13,0,0,0,0,.06h0a.08.08,0,0,0,0,.07.05.05,0,0,0,0,.05.14.14,0,0,0,.14,0,.23.23,0,0,0,.12-.1.08.08,0,0,0,0,0s0-.05,0-.08A.22.22,0,0,0,42,26.62Z" transform="translate(-7.43 -2.67)"/><path class="cls-29" d="M46.12,26.86c0-.19-.09-.37-.14-.55-.08-.37-.15-.74-.22-1.11-.13-.62-.28-1.23-.36-1.86a3.87,3.87,0,0,1,0-.48,1.6,1.6,0,0,1,0-.44c0-.1-.1-.07-.14,0a2.47,2.47,0,0,0-.16,1.87c.06.31.13.62.19.92a10.78,10.78,0,0,0,.28,1.12,4.57,4.57,0,0,0,.22.62,3,3,0,0,0,.3.56c.06.06.17,0,.16-.09S46.16,27,46.12,26.86Z" transform="translate(-7.43 -2.67)"/><path class="cls-29" d="M47.28,29.23v0a.14.14,0,0,1,0-.06.1.1,0,0,0,0,0l-.06,0h-.09s0,0,0,0l0,0a.09.09,0,0,0-.07,0,.13.13,0,0,0-.06.05.06.06,0,0,0,0,.06l0,.06h0v0s0,0,0,.06a.06.06,0,0,0,0,0h0s0,0,0,0h0a.1.1,0,0,0,0,0h0l0,0a.11.11,0,0,0,.12,0l.07,0a.13.13,0,0,0,.05-.07s0-.05,0-.07Z" transform="translate(-7.43 -2.67)"/><path class="cls-29" d="M51.2,23.85c0-.23-.05-.6-.31-.7a.29.29,0,0,0-.29.14,1,1,0,0,0-.18.47,1.39,1.39,0,0,0,0,.73.3.3,0,0,0,.2.22.41.41,0,0,0,.39-.13A1,1,0,0,0,51.2,23.85Z" transform="translate(-7.43 -2.67)"/><path class="cls-29" d="M51,26.14a.07.07,0,0,0,0-.06.07.07,0,0,0,0,0h-.19l0,0,0,0s0,0,0,0v0h0v0h0v0h0a.1.1,0,0,0,0,.07h0a0,0,0,0,0,0,0h.12a.15.15,0,0,0,.09,0l0,0h0s0,0,0,0h0s0,0,0-.05S51,26.16,51,26.14Z" transform="translate(-7.43 -2.67)"/><path class="cls-29" d="M53,27.94a.17.17,0,0,0-.12,0,.08.08,0,0,0,0-.05.13.13,0,0,0-.11.06.51.51,0,0,0-.07.36.58.58,0,0,0,.18.3.12.12,0,0,0,.13,0,.21.21,0,0,0,.13-.09A.43.43,0,0,0,53,27.94Z" transform="translate(-7.43 -2.67)"/><path class="cls-29" d="M53.94,36.37c-.08-.19-.22-.44-.44-.49a.26.26,0,0,0-.29.16.22.22,0,0,0-.15.11.53.53,0,0,0,0,.39,1.5,1.5,0,0,0,.19.38.85.85,0,0,0,.24.26.39.39,0,0,0,.35,0A.38.38,0,0,0,54,37,.93.93,0,0,0,53.94,36.37Z" transform="translate(-7.43 -2.67)"/><path class="cls-29" d="M57.63,27.11a.84.84,0,0,0-.1-.29,1.45,1.45,0,0,0-.17-.26.66.66,0,0,0-.18-.19.26.26,0,0,0-.36.2.34.34,0,0,0,.07.28h0a1.71,1.71,0,0,0,.14.49.39.39,0,0,0,.16.15.34.34,0,0,0,.29-.07A.39.39,0,0,0,57.63,27.11Z" transform="translate(-7.43 -2.67)"/><path class="cls-29" d="M76.21,36.92a3.5,3.5,0,0,0-.32-.71c-.12-.21-.25-.41-.39-.61A6,6,0,0,0,75,35l-.6-.65c-.07-.08-.24,0-.21.12A3.46,3.46,0,0,0,75,35.74c.14.18.27.37.41.56s.28.42.41.64.14.23.2.36a3.88,3.88,0,0,1,.15.36c0,.07.13,0,.14,0A1.85,1.85,0,0,0,76.21,36.92Z" transform="translate(-7.43 -2.67)"/><path class="cls-29" d="M73.44,44.77a1.83,1.83,0,0,0-.36-.64,2.39,2.39,0,0,0-.22-.23,1,1,0,0,0-.4-.22.37.37,0,0,0-.42.22.47.47,0,0,0,0,.33v0a2.56,2.56,0,0,0,.11.24,3.46,3.46,0,0,0,.22.31,1.11,1.11,0,0,0,.5.41.48.48,0,0,0,.46-.1A.37.37,0,0,0,73.44,44.77Z" transform="translate(-7.43 -2.67)"/><path class="cls-29" d="M78.17,33.83a.13.13,0,0,0-.11,0h0a.06.06,0,0,0-.07,0,.32.32,0,0,0-.12.08s-.08.11,0,.17a.49.49,0,0,0,.11.2l0,0a.39.39,0,0,0,.13.2.29.29,0,0,0,.22,0,.22.22,0,0,0,.18-.19A.75.75,0,0,0,78.17,33.83Z" transform="translate(-7.43 -2.67)"/><path class="cls-29" d="M79,43.08l0,0a.12.12,0,0,0,0-.08h0a.21.21,0,0,0-.1-.06h-.07a.08.08,0,0,0-.1,0,.13.13,0,0,0-.1.11.09.09,0,0,1,0,0v.05a.09.09,0,0,0,0,0,.22.22,0,0,0,0,.11l0,0a.81.81,0,0,0,.1.18.15.15,0,0,0,.14,0,.21.21,0,0,0,.15-.11.21.21,0,0,0,0-.07.31.31,0,0,0,0-.08A.49.49,0,0,0,79,43.08Z" transform="translate(-7.43 -2.67)"/><path class="cls-29" d="M75.64,27.45a.33.33,0,0,0-.25-.27.25.25,0,0,0-.26.09.52.52,0,0,0-.1.11.62.62,0,0,0-.28.25,1.19,1.19,0,0,0-.17.61.6.6,0,0,0,.07.32.14.14,0,0,0,.16,0,.62.62,0,0,0,.29-.15,2.27,2.27,0,0,0,.3-.32A1,1,0,0,0,75.64,27.45Z" transform="translate(-7.43 -2.67)"/><path class="cls-29" d="M74,29.3l0,0h-.14l-.09.06-.06.05,0,.06,0,0h0v0h0v.08a.08.08,0,0,0,0,0l0,0h.14l0,0,0,0,0,0,0,0,.08-.07a.18.18,0,0,0,.05-.07h0a.16.16,0,0,0,0-.09A.1.1,0,0,0,74,29.3Z" transform="translate(-7.43 -2.67)"/><g class="cls-30"><path class="cls-26" d="M67.35,36h0Z" transform="translate(-7.43 -2.67)"/><path class="cls-26" d="M67.71,35.63a.43.43,0,0,0-.43-.17.25.25,0,0,0-.25,0,.59.59,0,0,0-.34.49,1,1,0,0,0,.07.49.62.62,0,0,0,.34.37.56.56,0,0,0,.57-.18.77.77,0,0,0,.17-.49A.81.81,0,0,0,67.71,35.63Zm-.34.38h0l-.06-.08,0,0h0v0h0l0,0h0s0,0,0,0l0,0v0l0,.07Z" transform="translate(-7.43 -2.67)"/><path class="cls-26" d="M67.25,35.86h0S67.27,35.88,67.25,35.86Z" transform="translate(-7.43 -2.67)"/><path class="cls-26" d="M67.32,35.88h0Z" transform="translate(-7.43 -2.67)"/></g><path class="cls-29" d="M68.37,36.69s0,0,0,0a.79.79,0,0,0,0-.09l0,0,0,0h-.05l0,0a.16.16,0,0,0-.09.07l0,0s0,0,0,.06a.09.09,0,0,0,0,0,.14.14,0,0,0,0,.06v0a.1.1,0,0,0,0,0l0,0h0l.06,0a.05.05,0,0,0,0,0l0,0s0,0,0-.05A.08.08,0,0,0,68.37,36.69Z" transform="translate(-7.43 -2.67)"/><path class="cls-14" d="M57.34,52.73a6.19,6.19,0,0,1,3.22-4.83c3.07-1.68,5.92-.44,6.58,2.41s-.31,4-.85,4.52a12.34,12.34,0,0,0-3,3.75c-.81,1.83-2,4-3.81,4.39s-4-.81-3.65-2.86S57.85,56.38,57.34,52.73Z" transform="translate(-7.43 -2.67)"/><path class="cls-13" d="M57.05,51.34a6.2,6.2,0,0,1,3.21-4.83c3.08-1.68,5.93-.44,6.59,2.41s-.31,4-.85,4.52a12.49,12.49,0,0,0-3,3.75c-.8,1.83-2,4-3.8,4.39s-4-.81-3.66-2.86S57.56,55,57.05,51.34Z" transform="translate(-7.43 -2.67)"/><g class="cls-20"><path class="cls-31" d="M66.71,49.2A6.12,6.12,0,0,0,66,47.57a3.65,3.65,0,0,0-1.29-1.24A3.5,3.5,0,0,0,63,45.92a6.54,6.54,0,0,0-.89.08,9.15,9.15,0,0,0-.91.18,4.64,4.64,0,0,0-1.52.73,5.46,5.46,0,0,0-1.16,1.19,8.88,8.88,0,0,0-.74,1.17,2.6,2.6,0,0,0-.36,1.35,1.17,1.17,0,0,0,.19.55s.07,0,.06,0a1.43,1.43,0,0,1,0-1.26,5.61,5.61,0,0,1,.68-1.28,7.57,7.57,0,0,1,.9-1.13,4.45,4.45,0,0,1,1.32-.91,5.76,5.76,0,0,1,1.68-.42,4.09,4.09,0,0,1,1.67.06,3.28,3.28,0,0,1,1.48.93,5.14,5.14,0,0,1,.91,1.48,4.62,4.62,0,0,1,.38,1.71,3.92,3.92,0,0,1-.37,1.62,6.54,6.54,0,0,1-1,1.5c-.4.48-.83,1-1.23,1.43A11.23,11.23,0,0,0,63,56.41c-.31.54-.57,1.12-.86,1.67a6.12,6.12,0,0,1-1.94,2.47,3.72,3.72,0,0,1-2.19.6,2.44,2.44,0,0,1-1-.28,2.07,2.07,0,0,1-.78-.8,2.71,2.71,0,0,1-.24-.59c0-.08-.15,0-.13.06a2.28,2.28,0,0,0,.58,1.12,2.16,2.16,0,0,0,1,.56A3.54,3.54,0,0,0,59.69,61a3.68,3.68,0,0,0,1-.64A5.76,5.76,0,0,0,61.8,59c.33-.54.6-1.11.89-1.68a11,11,0,0,1,1-1.69c.39-.53.83-1,1.26-1.52a11.63,11.63,0,0,0,1.19-1.51A4.65,4.65,0,0,0,66.8,51,3.74,3.74,0,0,0,66.71,49.2Z" transform="translate(-7.43 -2.67)"/><path class="cls-31" d="M64.4,49.38a4.65,4.65,0,0,0-.44-.86,2.64,2.64,0,0,0-1.5-1.12,2.16,2.16,0,0,0-1.1,0,3.08,3.08,0,0,0-1,.52A7.44,7.44,0,0,0,59,49.37a5.45,5.45,0,0,0-.49.81s0,0,0,0l0,.11a1.86,1.86,0,0,0-.13,1.09s.07,0,.06,0a1.82,1.82,0,0,1,.1-.8,1.37,1.37,0,0,0,.27.49c.22.27.49.5.72.76a2.9,2.9,0,0,1,.54,1A2.85,2.85,0,0,1,60.11,54a2.57,2.57,0,0,1-.51,1.27c0,.05,0,.07.07,0A2.54,2.54,0,0,0,60.22,53a3.06,3.06,0,0,0-.47-1.1,7.07,7.07,0,0,0-.7-.75,3.32,3.32,0,0,1-.37-.47.89.89,0,0,1-.12-.38A4.2,4.2,0,0,1,59,49.6a7.45,7.45,0,0,1,1.29-1.4,3.25,3.25,0,0,1,.89-.58,1.87,1.87,0,0,1,1.05-.1,2.55,2.55,0,0,1,1.52,1,4,4,0,0,1,.54.88c.15.32.25.66.37,1,0,0,.06,0,.06,0A3.87,3.87,0,0,0,64.4,49.38Z" transform="translate(-7.43 -2.67)"/><path class="cls-31" d="M60.1,54.15a1.19,1.19,0,0,0-.23-.43,2.08,2.08,0,0,0-.4-.32,5,5,0,0,0-.46-.25,2,2,0,0,0-.34-.14,1.9,1.9,0,0,0-.58,0,.89.89,0,0,0-.55.16c-.16.13-.11.3,0,.42a1.54,1.54,0,0,0,.17.59,2.73,2.73,0,0,1,.25.78.84.84,0,0,1-.3.71,4.68,4.68,0,0,0-.57.61,3.28,3.28,0,0,0-.45.92c0,.06.07,0,.09,0a4.57,4.57,0,0,1,.46-.84,5.82,5.82,0,0,1,.6-.62,1.11,1.11,0,0,0,.31-.49c.12,0,.23-.16.29-.24a1.44,1.44,0,0,0,.2-.39,3.77,3.77,0,0,0,.19-1,2.09,2.09,0,0,0,0-.25v-.09l.07,0a3.17,3.17,0,0,1,.41.21,2.59,2.59,0,0,1,.41.31,1.52,1.52,0,0,1,.33.39S60.1,54.18,60.1,54.15Z" transform="translate(-7.43 -2.67)"/><path class="cls-31" d="M64.08,52.05a3.93,3.93,0,0,1-.2.82,4.68,4.68,0,0,1-.35.71,9.59,9.59,0,0,1-1,1.29c-.36.41-.82.73-1.19,1.14a2.58,2.58,0,0,0-.47.71,8.33,8.33,0,0,1-.36.81,1.19,1.19,0,0,1-1.46.47s-.09.06,0,.08a1.36,1.36,0,0,0,1.39-.23,1.76,1.76,0,0,0,.45-.68,4,4,0,0,1,.42-.85,12.78,12.78,0,0,1,1.23-1.21c.2-.2.38-.43.56-.65a7.76,7.76,0,0,0,.5-.67A3.7,3.7,0,0,0,64,53a2.46,2.46,0,0,0,.11-.45,3.88,3.88,0,0,0,0-.48S64.08,52,64.08,52.05Z" transform="translate(-7.43 -2.67)"/><path class="cls-31" d="M62.52,48.1a1.87,1.87,0,0,0-.9,1.47,5.19,5.19,0,0,0,.18,1.92,7.54,7.54,0,0,0,.29.92c0,.05.12,0,.11,0a16.66,16.66,0,0,1-.38-1.7A3.55,3.55,0,0,1,62,48.89a1.94,1.94,0,0,1,.59-.74S62.56,48.08,62.52,48.1Z" transform="translate(-7.43 -2.67)"/><path class="cls-31" d="M60.79,49.59c-.07.07-.14.16-.24.16a.52.52,0,0,1-.27-.1c-.19-.12-.34-.29-.53-.41,0,0-.1,0-.06.07a3,3,0,0,0,.55.51.42.42,0,0,0,.64-.2C60.9,49.56,60.82,49.57,60.79,49.59Z" transform="translate(-7.43 -2.67)"/></g><path class="cls-14" d="M66.85,48.92a4.22,4.22,0,0,0-1.07-2,5.4,5.4,0,0,1,.76,1.47,3.1,3.1,0,0,1,0,2,2.11,2.11,0,0,1-.21.46,1.22,1.22,0,0,1-.24.32.39.39,0,0,1-.46.06,1.13,1.13,0,0,1-.39-.45A4.32,4.32,0,0,1,65,50c-.08-.2-.15-.41-.23-.62a4.36,4.36,0,0,0-.45-.82,3.32,3.32,0,0,0-1.89-1.44,2.13,2.13,0,0,0-1.2.06,4.58,4.58,0,0,0-1.1.62,4.41,4.41,0,0,0-1.37,1.6,5.65,5.65,0,0,0-.53,2.07s-.05.06-.07,0a2.5,2.5,0,0,1-.45-.89,4.2,4.2,0,0,1-.13-1.17c-.07.16-.14.32-.19.47s0,.37,0,.55a2.27,2.27,0,0,0,.22.81,1.87,1.87,0,0,0,.63.68c.25.18.51.35.75.54a2.66,2.66,0,0,1,.64.7,0,0,0,0,1-.07.06,1.71,1.71,0,0,0-.2-.18,1.91,1.91,0,0,0-1.11-.47.79.79,0,0,0-.82.51,1.61,1.61,0,0,0,.16.89,2.13,2.13,0,0,1,.15,1.09,4.22,4.22,0,0,1-1.08,1.81,5.47,5.47,0,0,0-1.09,2.26s0,0,0,.07c.06,1.74,2,2.74,3.7,2.34,1.83-.44,3-2.56,3.8-4.39a12.49,12.49,0,0,1,3-3.75C66.54,52.9,67.51,51.77,66.85,48.92Zm-4.95,1a0,0,0,0,1,.08,0c.12.22.26.43.4.64a5.92,5.92,0,0,1,.68,1,2.1,2.1,0,0,1,.13,1.31,0,0,0,0,1-.07,0,1.33,1.33,0,0,1-.43-.39,3.4,3.4,0,0,1-.51-1.11,3.37,3.37,0,0,1-.12-.48A2.62,2.62,0,0,1,61.9,49.89ZM59.54,51a0,0,0,0,1,.05,0l.17,0a2.48,2.48,0,0,1,1.1.66,2.62,2.62,0,0,1,.62,1.07,2.65,2.65,0,0,1,.1,1.22A2.24,2.24,0,0,1,60,55.79a0,0,0,0,1,0,0c.09-.31.2-.61.29-.91a4.57,4.57,0,0,0,.2-.83,3,3,0,0,0,0-.85c0-.09,0-.18,0-.26-.12-.31-.29-.59-.44-.89A3.45,3.45,0,0,1,59.54,51Zm5.6,1.64a2.72,2.72,0,0,1-.67,1.47,14,14,0,0,1-1.13,1.18,5.73,5.73,0,0,0-1,1.26,10.57,10.57,0,0,0-.7,1.53,5.66,5.66,0,0,1-.79,1.42,3.78,3.78,0,0,1-1.35,1,2.8,2.8,0,0,1-1.51.22A2.27,2.27,0,0,1,56.61,60a1.67,1.67,0,0,1-.38-.93,2.09,2.09,0,0,1,.11-1,1.12,1.12,0,0,1,.64-.67,1.21,1.21,0,0,1,1.08.23c.32.26.54.65.94.8a1.21,1.21,0,0,0,1.16-.2,2.69,2.69,0,0,0,.67-1,6.84,6.84,0,0,1,.61-1.05,7.27,7.27,0,0,1,.54-.57c.2-.19.39-.39.58-.59a9.16,9.16,0,0,0,1-1.22,6,6,0,0,0,.57-1.13,2.48,2.48,0,0,0,0-.72c-.07-.39-.19-.76-.28-1.14,0-.05,0-.08.07-.05.2.19.4.37.58.56A2,2,0,0,1,65.14,52.64Z" transform="translate(-7.43 -2.67)"/><path class="cls-32" d="M61.52,46.4a4.67,4.67,0,0,0-1.33.64,4.78,4.78,0,0,0-1.86,2.36,3.56,3.56,0,0,0-.15.56l.13-.3a5.56,5.56,0,0,1,1.88-2.2,4.53,4.53,0,0,1,1.26-.59,12.16,12.16,0,0,1,1.34-.25l0,0A1.35,1.35,0,0,0,61.52,46.4Z" transform="translate(-7.43 -2.67)"/><path class="cls-32" d="M58.91,60.18a2.8,2.8,0,0,1-1.65-.56,2.4,2.4,0,0,1-.59-.64,2.05,2.05,0,0,0,1.57,1.63A2.18,2.18,0,0,0,60,60.2,5.66,5.66,0,0,0,58.91,60.18Z" transform="translate(-7.43 -2.67)"/></g><path class="cls-33" d="M36,106.39a2.34,2.34,0,0,0,.7-1.8A24.41,24.41,0,0,0,34.86,100l-.67.33a24.37,24.37,0,0,1,1.72,4.35c.18,1.07-2.23,3.26-6.4,4.28l.18.72A12.11,12.11,0,0,0,36,106.39Z" transform="translate(-7.43 -2.67)"/><g class="cls-20"><path class="cls-3" d="M29.51,109q.6-.15,1.14-.33c0,.21.14.46.39.35,1.62-.68,4.38-1.58,5-3.46.52-1.53-.42-2.86-.9-4.28a.3.3,0,0,0-.55,0c-.23-.5-.4-.85-.41-.86l.67-.33a24.41,24.41,0,0,1,1.79,4.56,2.34,2.34,0,0,1-.7,1.8,12.11,12.11,0,0,1-6.26,3.32Z" transform="translate(-7.43 -2.67)"/></g><path class="cls-3" d="M29.66,108.06a3.31,3.31,0,0,1,1,2.15s0,1-3.16,1.21a2.94,2.94,0,0,1-.87-1.78S28.54,107.74,29.66,108.06Z" transform="translate(-7.43 -2.67)"/><path class="cls-7" d="M29.84,108.24a3.47,3.47,0,0,1,.55.82c-1.16.48-2.34.93-3.51,1.39a2.16,2.16,0,0,1-.16-.47C27.74,109.37,28.76,108.75,29.84,108.24Z" transform="translate(-7.43 -2.67)"/><path class="cls-7" d="M27.36,111.22a2.67,2.67,0,0,1-.18-.23c1.14-.45,2.29-.89,3.42-1.36a2.84,2.84,0,0,1,.08.42C29.58,110.45,28.48,110.88,27.36,111.22Z" transform="translate(-7.43 -2.67)"/><path class="cls-34" d="M27.54,111.42c3.2-.26,3.16-1.21,3.16-1.21a3.31,3.31,0,0,0-1-2.15c-1.12-.32-3,1.58-3,1.58A2.94,2.94,0,0,0,27.54,111.42Zm-.28-.76c-.32,0-.38-.52-.44-.68-.14-.34.11-.47.38-.65,1.64-1.11,2-1.46,2.53-.33.17.37.37.65,0,1a3.32,3.32,0,0,1-1.27.57A3.39,3.39,0,0,1,27.26,110.66Z" transform="translate(-7.43 -2.67)"/><path class="cls-35" d="M32.1,108.36a13.31,13.31,0,0,0,2.95-1.76c1.56-1.21.84-2.37.48-3.74,0-.09.17-.39.21-.25.29,1.09.9,2.23.17,3.29A8.77,8.77,0,0,1,32,108.68C31.89,108.74,32,108.4,32.1,108.36Z" transform="translate(-7.43 -2.67)"/><path class="cls-35" d="M35.31,102.47a5.12,5.12,0,0,0-.35-.92c-.05-.11.14-.4.18-.31a5.43,5.43,0,0,1,.38,1C35.54,102.3,35.35,102.61,35.31,102.47Z" transform="translate(-7.43 -2.67)"/><path class="cls-33" d="M36.32,105.87a2.37,2.37,0,0,1-1.85.56,24.87,24.87,0,0,1-4.4-2.15l.38-.64a25.39,25.39,0,0,0,4.2,2.06c1.05.26,3.43-2,4.77-6l.71.23A12,12,0,0,1,36.32,105.87Z" transform="translate(-7.43 -2.67)"/><g class="cls-20"><path class="cls-3" d="M39.42,99.66c-.13.39-.27.76-.41,1.11a.29.29,0,0,1,.31.41c-.8,1.56-1.92,4.24-3.84,4.72-1.57.4-2.82-.65-4.2-1.23a.3.3,0,0,1,0-.55l-.83-.48-.38.64a24.87,24.87,0,0,0,4.4,2.15,2.37,2.37,0,0,0,1.85-.56,12,12,0,0,0,3.81-6Z" transform="translate(-7.43 -2.67)"/></g><path class="cls-3" d="M38.49,99.74a3.32,3.32,0,0,0,2,1.2s1,.12,1.46-3.06a2.91,2.91,0,0,0-1.7-1S38.26,98.59,38.49,99.74Z" transform="translate(-7.43 -2.67)"/><path class="cls-7" d="M38.65,99.93a3.57,3.57,0,0,0,.78.61c.57-1.12,1.11-2.26,1.66-3.39a2.11,2.11,0,0,0-.46-.19C40,97.93,39.25,98.89,38.65,99.93Z" transform="translate(-7.43 -2.67)"/><path class="cls-7" d="M41.82,97.69a2.3,2.3,0,0,0-.22-.2c-.54,1.1-1.07,2.22-1.62,3.31l.41.11C40.87,99.84,41.39,98.78,41.82,97.69Z" transform="translate(-7.43 -2.67)"/><path class="cls-34" d="M40.3,96.88s-2,1.71-1.81,2.86a3.32,3.32,0,0,0,2,1.2s1,.12,1.46-3.06A2.91,2.91,0,0,0,40.3,96.88Zm.76,1.86a3.14,3.14,0,0,1-.67,1.21c-.35.34-.61.13-1-.08-1.07-.6-.7-1,.54-2.49.2-.25.35-.49.67-.33.16.08.64.18.65.5A3.35,3.35,0,0,1,41.06,98.74Z" transform="translate(-7.43 -2.67)"/><path class="cls-35" d="M38.59,102.19a13.17,13.17,0,0,1-2,2.8c-1.33,1.46-2.42.65-3.76.18-.1,0-.41.14-.27.19,1.06.37,2.15,1.07,3.27.43a8.82,8.82,0,0,0,3.08-3.65C39,102,38.63,102.1,38.59,102.19Z" transform="translate(-7.43 -2.67)"/><path class="cls-35" d="M32.46,104.92a5.15,5.15,0,0,1-.89-.42c-.1-.06-.4.11-.32.16a6.25,6.25,0,0,0,.94.45C32.28,105.14,32.6,105,32.46,104.92Z" transform="translate(-7.43 -2.67)"/><path class="cls-3" d="M26.49,85.85c-2.7-2.44-5.43-3.48-7.3-2.8l-.22.09c-.48-.67-1.28-1.74-2.62-3.41-.22-.28-.46-.58-.7-.9h-.11a.42.42,0,0,0-.19.06h0l0,0h0l-.08,0h0l-.23.17a1.82,1.82,0,0,0-.45.6l.71.91c1.38,1.73,2.17,2.79,2.61,3.41a5.45,5.45,0,0,0-1,2.75c-.75,5.63,9.41,15.85,13.63,18.09l.7-1.32c-4.3-2.29-13.37-11.75-12.78-16.18a3.69,3.69,0,0,1,1.83-2.9C21.44,84,23.28,85,25.49,87c3.27,3,8.38,13.69,8.43,13.8l1.35-.64C35.06,99.67,30,89,26.49,85.85Z" transform="translate(-7.43 -2.67)"/><path class="cls-34" d="M26.49,85.85c-2.7-2.44-5.43-3.48-7.3-2.8l-.22.09c-.48-.67-1.28-1.74-2.62-3.41-.22-.28-.46-.58-.7-.9h-.11a.42.42,0,0,0-.19.06h0l0,0h0l-.08,0h0l-.23.17a1.82,1.82,0,0,0-.45.6l.71.91c1.38,1.73,2.17,2.79,2.61,3.41a5.45,5.45,0,0,0-1,2.75c-.75,5.63,9.41,15.85,13.63,18.09l.33-.6a23.82,23.82,0,0,1-5.25-4A41.06,41.06,0,0,1,20,94.24c-1.4-2-4.05-5.3-2.54-8.69.16-.36.75.09.62.46a5.5,5.5,0,0,0,.52,4.64,23.4,23.4,0,0,0,3,4.66c2.62,3.2,5.72,6.47,9.42,8.46l.09-.18c-4.3-2.29-13.37-11.75-12.78-16.18a3.69,3.69,0,0,1,1.83-2.9C21.44,84,23.28,85,25.49,87c3.27,3,8.38,13.69,8.43,13.8l.5-.24c-.11,0-2.7-5.68-4.17-8.3-.45-.79-.9-1.57-1.42-2.31-1.94-2.78-4.5-5.67-8-6.23-.39-.07-.59-.72-.21-.66,3.38.54,6,2.8,7.9,5.47a68.72,68.72,0,0,1,5,8.71c.5,1,1,2.06,1.41,3.06l.31-.14C35.06,99.67,30,89,26.49,85.85Z" transform="translate(-7.43 -2.67)"/><path class="cls-3" d="M19.3,82.86c-.2,0-.33.15-.74-.39s-2.47-3.23-2.69-3.5-.53-.06-.89.14l-.06,0a1.89,1.89,0,0,0-.45.59.44.44,0,0,0,0,.36s2.52,3.25,2.73,3.56.26.47,0,1c0,0-.15.2.14.33a4.59,4.59,0,0,1,1.12.73c.23.23.29.36.44.17s.51-1.13,1.36-1.23c.3,0,.31-.1.17-.46a11,11,0,0,0-.66-1.4C19.74,82.6,19.49,82.81,19.3,82.86Z" transform="translate(-7.43 -2.67)"/><path class="cls-4" d="M19.3,82.86c-.2,0-.33.15-.74-.39s-2.47-3.23-2.69-3.5-.42-.12-.7,0a.24.24,0,0,1,.27.07,25,25,0,0,1,1.84,2.25c.66.86,1.31,1.3,1.49,2,0,.16-.32.49-.27.68a1.67,1.67,0,0,1,.37-.38,1.71,1.71,0,0,1,.89-.44c.35,0,.7.79.38.9a6.09,6.09,0,0,1-.9.5c-.3.24-.57,1.27-1.5.27-.17-.17,0-.65.11-.89.25-.58-.45-1.24-.72-1.66-.63-1-1.7-2.08-2.2-2.85-.13-.19,0-.31.17-.42l-.12.07-.06,0a1.89,1.89,0,0,0-.45.59.44.44,0,0,0,0,.36s2.52,3.25,2.73,3.56.26.47,0,1c0,0-.15.2.14.33a4.59,4.59,0,0,1,1.12.73c.23.23.29.36.44.17s.51-1.13,1.36-1.23c.3,0,.31-.1.17-.46a11,11,0,0,0-.66-1.4C19.74,82.6,19.49,82.81,19.3,82.86Z" transform="translate(-7.43 -2.67)"/><path class="cls-7" d="M20.84,83.37s2.51,0,5.51,3.08,5.19,7.14,7.94,13.1c0,0-3.22-8.34-7.89-13.43C23.35,82.79,20.84,83.37,20.84,83.37Z" transform="translate(-7.43 -2.67)"/><path class="cls-7" d="M21.51,95.85s-5.74-6.3-3.89-9.9C17.62,86,15.92,88.31,21.51,95.85Z" transform="translate(-7.43 -2.67)"/><path class="cls-7" d="M19.9,83.4A2.86,2.86,0,0,0,18,84.81c-.13.21.16.07.22,0a2.23,2.23,0,0,1,1.45-1.11C19.81,83.65,20,83.37,19.9,83.4Z" transform="translate(-7.43 -2.67)"/><path class="cls-7" d="M15.39,79.34c-.07-.09-.39.1-.34.17a33.78,33.78,0,0,0,3,3.65c.09.09.39-.11.34-.17A31.55,31.55,0,0,1,15.39,79.34Z" transform="translate(-7.43 -2.67)"/><path class="cls-7" d="M18.49,83.2s0,0,0,0-.33.17-.26.26,0,0,.07.06S18.58,83.21,18.49,83.2Z" transform="translate(-7.43 -2.67)"/><path class="cls-3" d="M86.82,94.43c-.22-.3-.29-.59,0-.8.89-.64,1.78-1.32,2.65-2,.29-.23.56-.08.8.21s.33.59,0,.82c-.9.73-1.82,1.43-2.73,2.09C87.18,95,87,94.62,86.82,94.43Z" transform="translate(-7.43 -2.67)"/><path class="cls-34" d="M90.28,91.8l0,0a.44.44,0,0,1-.1.6c-.89.74-1.81,1.43-2.72,2.09a.41.41,0,0,1-.64-.08l0,.05c.13.19.36.59.78.28.91-.66,1.83-1.36,2.73-2.09C90.61,92.39,90.51,92.08,90.28,91.8Z" transform="translate(-7.43 -2.67)"/><path class="cls-36" d="M86.85,94.07a.1.1,0,0,1-.09,0,.1.1,0,0,1,0-.15l3-2.27a.11.11,0,0,1,.16,0,.14.14,0,0,1,0,.16l-3,2.26A.07.07,0,0,1,86.85,94.07Z" transform="translate(-7.43 -2.67)"/></g></g></svg>