<svg xmlns="http://www.w3.org/2000/svg" xmlns:xlink="http://www.w3.org/1999/xlink" viewBox="0 0 3151.47 1823.28"><defs><style>.cls-1{fill:none;}.cls-2{fill:#d9f3ff;}.cls-3{clip-path:url(#clip-path);}.cls-4{fill:#ffa46e;}.cls-5{fill:#545454;}.cls-6{fill:#333;}.cls-7{fill:#6e6e6e;}.cls-8{fill:#fff;}.cls-9{fill:#d46c42;}.cls-10{fill:#c75038;}.cls-11{fill:#9eddff;}.cls-12{fill:#204f63;}.cls-13{fill:#3086b3;}.cls-14{fill:#5bb9eb;}.cls-15{fill:#276c9c;}.cls-16{fill:#d9f1ff;}.cls-17{fill:#d17743;}.cls-18{fill:#d66d2d;}.cls-19{fill:#f2faff;}.cls-20{fill:#c95138;}.cls-21{fill:#66c2f5;}.cls-22{fill:#f7a594;}.cls-23{fill:#de7964;}.cls-24{fill:#80d3ff;}.cls-25{fill:#f56245;}.cls-26{fill:#b8e5ff;}.cls-27{fill:#a33a23;}.cls-28{fill:#ba4228;}.cls-29{fill:#f79985;}.cls-30{fill:#5fb38c;}.cls-31{fill:#379168;}.cls-32{fill:#74c9a2;}.cls-33{fill:#e3733f;}.cls-34{fill:#db542e;}.cls-35{fill:#33ace6;}.cls-36{fill:#2786b4;}.cls-37{fill:#b3e4ff;}.cls-38{fill:#296acc;}.cls-39{fill:#80b2ff;}.cls-40{fill:#a6dfff;}</style><clipPath id="clip-path" transform="translate(-185.07 -362.79)"><rect class="cls-1" x="64.27" y="147.96" width="3228.79" height="1888.69"/></clipPath></defs><g id="cloud"><path class="cls-2" d="M203.4,2044.92C474,1933.59,740.2,1487.68,615.9,1123.84c-215.69-631.4,621.31-1014,1068.26-567.1,283.55,283.55,969.34-158.26,1292.45,323.11,172.67,257.24-76.89,667.25-66.51,866.16,9.82,188.21,260.47,298.91,260.47,298.91Z" transform="translate(-185.07 -362.79)"/><path d="M3331.42,2047.77H190.18a5.11,5.11,0,0,1-5.11-5.11h0a5.11,5.11,0,0,1,5.11-5.12H3331.42a5.11,5.11,0,0,1,5.11,5.12h0A5.11,5.11,0,0,1,3331.42,2047.77Z" transform="translate(-185.07 -362.79)"/></g><g id="call_center" data-name="call center"><g class="cls-3"><polygon class="cls-4" points="2415.71 815.82 2355.89 881.9 2250.98 768.1 2321.99 741.04 2415.71 815.82"/><path class="cls-5" d="M2526.18,1196.7l-3.64,1.9-36.24,18.9a20.06,20.06,0,0,1-27.15-8.2c-30.94-77.9-67.59-149.55-113.23-211.38a20,20,0,0,1,8.21-27.14L2392,951l2-1a20,20,0,0,1,27.14,8.21c45,64.41,82.3,135.25,113.24,211.38A20.06,20.06,0,0,1,2526.18,1196.7Z" transform="translate(-185.07 -362.79)"/><path class="cls-6" d="M2424.86,1011.72l-46.18,24.19a18.2,18.2,0,0,1-24.63-7.45l-15.82-29.53a18.2,18.2,0,0,1,7.45-24.64l46.17-24.18a18.2,18.2,0,0,1,24.64,7.45l15.82,29.53A18.2,18.2,0,0,1,2424.86,1011.72Z" transform="translate(-185.07 -362.79)"/><path class="cls-7" d="M2414.7,1011.88l-36.22,18.85a15.68,15.68,0,0,1-21.23-6.42L2343,997.71a15.68,15.68,0,0,1,6.42-21.23l36.22-18.85a15.69,15.69,0,0,1,21.24,6.42l14.24,26.6A15.68,15.68,0,0,1,2414.7,1011.88Z" transform="translate(-185.07 -362.79)"/><path class="cls-6" d="M2524.14,1197.05,2478,1221.24a18.2,18.2,0,0,1-24.63-7.45l-15.82-29.53a18.2,18.2,0,0,1,7.44-24.64l46.18-24.18a18.19,18.19,0,0,1,24.63,7.45l15.82,29.53A18.19,18.19,0,0,1,2524.14,1197.05Z" transform="translate(-185.07 -362.79)"/><path class="cls-7" d="M2514.33,1197.86l-36.23,18.85a15.69,15.69,0,0,1-21.23-6.42l-14.25-26.6a15.69,15.69,0,0,1,6.42-21.23l36.23-18.85a15.67,15.67,0,0,1,21.23,6.42l14.25,26.59A15.7,15.7,0,0,1,2514.33,1197.86Z" transform="translate(-185.07 -362.79)"/><path class="cls-4" d="M2437.76,1160.6c-3.62-.8-36.55-20.08-7.63-70.69,20.88-1.6,23.14,25.18,19.28,32.14C2437.36,1143.73,2437.76,1160.6,2437.76,1160.6Z" transform="translate(-185.07 -362.79)"/><path class="cls-6" d="M2526.18,1196.7l-3.64,1.9c.79-1.94,2.95-7.28,5.09-13.47,2.72-7.8-31.9-61.09-31.9-61.09s-37-5.1-54.31-39-3.74-66.53-3.74-66.53-18-31.56-26.13-49.55c-4.59-10.13-13-15.31-19.56-17.91l2-1a20,20,0,0,1,27.14,8.21c45,64.41,82.3,135.25,113.24,211.38A20.06,20.06,0,0,1,2526.18,1196.7Z" transform="translate(-185.07 -362.79)"/><path class="cls-4" d="M2478.33,1115.62c9.74,5.13,20.18-2,28.91,0,4.5,1,5.34,7.84,9.24,10.44,19.68-27.71-18.24-98.21-51.05-113.43-2.14-1-24.7,1.18-23.52,35.88C2442.64,1070.25,2468.58,1110.48,2478.33,1115.62Z" transform="translate(-185.07 -362.79)"/><path class="cls-8" d="M2872.66,1401.55s0,.06,0,.08A68.45,68.45,0,0,1,2868,1417c-10.24,23.42-34.78,43.43-80.36,51.06-70.67,5.36-174.1,9.73-266.13,16.31-26.45,1.89-52,4-75.48,6.29-97.35-25.11-155.77-173.88-41.66-205.43,12.91-3.57,66.39-4.6,131.92-2.88,119.17,3.11,278.19,15.28,305.62,37.69C2863.49,1337.7,2878.21,1370.81,2872.66,1401.55Z" transform="translate(-185.07 -362.79)"/><path class="cls-4" d="M2370.76,1297.42c-58.28,47-140.72,59.39-202,4,.6-30.73,9.11-122.33,7-152.22l190,25.63C2367.26,1210.84,2369.3,1261.25,2370.76,1297.42Z" transform="translate(-185.07 -362.79)"/><path class="cls-9" d="M2366.36,1183c-.11-2.75-.21-5.57-.31-8.18h-140.3l-42.41,8.93s60.14,99.29,187.15,113.9C2369,1255.75,2367.14,1204.28,2366.36,1183Z" transform="translate(-185.07 -362.79)"/><ellipse class="cls-4" cx="2392.4" cy="1025" rx="23.39" ry="29.64" transform="translate(-233.01 -242.74) rotate(-2.85)"/><path class="cls-4" d="M2375.56,934.9c-.94,3.21,40,150.38,34.92,187.13-42.7,110.12-114.9,149.41-232.26,65.58-17.3-20.11-70.86-132-71.8-133C2028.47,903.48,2317.22,776.4,2375.56,934.9Z" transform="translate(-185.07 -362.79)"/><path d="M2348.05,900.79c25.16,5.89,33.95,73.67,41.24,94.34l1.38-3.92c6.34-282.29-463.05-141.46-271.44,88.72,13.89,8.48,28.82,36.39,37.2,56.57-2.24-13.73,13.91-55.64,8.25-86.68,0,0-33.32-42.09-23.09-82.5,6.27-24.77,59.33-17.22,104.49-33.67C2292,916.93,2330,894,2348.05,900.79Z" transform="translate(-185.07 -362.79)"/><path d="M2238.84,1048.76c5.66,15.65-10.49,21.57-16.29,6S2233,1033.17,2238.84,1048.76Z" transform="translate(-185.07 -362.79)"/><path d="M2365.7,1002.77c5.66,15.64-10.5,21.57-16.3,6S2359.9,987.18,2365.7,1002.77Z" transform="translate(-185.07 -362.79)"/><path class="cls-10" d="M2329.89,1108.71c31.67-10.09-13.55-46.58-22.88-56l-7.64-20.82a2.67,2.67,0,1,0-5,1.84l8.1,22.1c14.44,12.57,34.86,34.26,33.46,41.47-3.36,11.92-33.55,6.78-32.41,12.37C2303.28,1115,2320.15,1111.6,2329.89,1108.71Z" transform="translate(-185.07 -362.79)"/><path class="cls-10" d="M2329.49,1158.15c8.36-3.07,13.94-5.55,14.75-5.91,3.15-1.38,1-6.34-2.19-4.87-.74.33-74,32.91-102.7,11.5a2.68,2.68,0,0,0-3.74.55C2247.31,1183.93,2309.52,1165.63,2329.49,1158.15Z" transform="translate(-185.07 -362.79)"/><path d="M2200.26,1037.4c-23.74-.93,16.36-37,39.89-28.07a5.34,5.34,0,1,1-2.13,10.46C2210.66,1015.66,2205.92,1034.81,2200.26,1037.4Z" transform="translate(-185.07 -362.79)"/><path d="M2324.74,990.27c-20.72.83,7.79-34,40.49-26.43a5.34,5.34,0,0,1-2.12,10.47C2335.81,970,2330.1,987.82,2324.74,990.27Z" transform="translate(-185.07 -362.79)"/><path d="M2079.63,931.78s54.52-118.54,164.41-148S2330.65,824,2330.65,824c115.5-18.09-59.93,108.07-106.21,117.43C2182.65,952.9,2077.05,966.42,2079.63,931.78Z" transform="translate(-185.07 -362.79)"/><ellipse class="cls-4" cx="2136.64" cy="1106.82" rx="33.97" ry="43.06" transform="translate(-417.67 1164.72) rotate(-37.45)"/><path class="cls-10" d="M2149,1128.18a3,3,0,0,1-3.7-1.43c-10.9-20.74-19.12-24.55-23.05-25a7.7,7.7,0,0,0-6.49,2.38,3,3,0,0,1-4.68-3.79,13.76,13.76,0,0,1,11.64-4.6c9.15.88,18.55,10.36,27.92,28.19a3,3,0,0,1-1.27,4.06A2.48,2.48,0,0,1,2149,1128.18Z" transform="translate(-185.07 -362.79)"/><g id="_03" data-name="03"><path class="cls-11" d="M1989.54,2095.91c-2.5,29.19-5,59.7-7.52,90.16H2452l3.38-884.85c-24-5.08-56.33-17.55-89-20.25-20.5,22-32.82,37.35-67.7,38.13-21.57.47-53.45-10.66-74.37-39.92-167.4,16.49-254.33,75.11-254.33,75.11l77.2,536.15S1998.92,1986.05,1989.54,2095.91Z" transform="translate(-185.07 -362.79)"/><path class="cls-12" d="M2555.49,2186.07l-4.12-41.83c-134.7,39.49-419.25,48.33-563,0-1.23,14.48-2.48,28.39-3.73,41.83Z" transform="translate(-185.07 -362.79)"/><polygon class="cls-13" points="2134.22 1031.57 2164.64 992.3 2115.5 957.42 2062.86 990.98 2093.96 1031.57 2134.22 1031.57"/><path class="cls-13" d="M2403.37,1965.08l-61,100.44-58.52-97.26c14-179.25,7.57-410.62-4.38-599.16l41.61.27C2360.42,1561.15,2393.23,1788.21,2403.37,1965.08Z" transform="translate(-185.07 -362.79)"/><path class="cls-14" d="M2391.69,1284.06,2370,1261.47c-1.85,23-44.37,52.68-69.42,58.74,22.52,19.18,39.91,33.71,62.55,68.64Z" transform="translate(-185.07 -362.79)"/><path class="cls-14" d="M2142,1287.6l32.67-41.22s65.51,49,125.93,73.83c-27,20.38-39.41,41.36-55.63,68.64Z" transform="translate(-185.07 -362.79)"/><path class="cls-8" d="M1950.43,2186.07h264.32c35.39-310.36.21-610.1-76.55-896.48-145.54,21.74-169.4,64.7-169.4,64.7l62.85,548Z" transform="translate(-185.07 -362.79)"/><path class="cls-8" d="M2435.41,2186.07h136.72l-35.55-386.38L2513,1324.76c-66.71-32-87.87-35.51-123.51-42.93C2438.31,1597.91,2455.33,1897.54,2435.41,2186.07Z" transform="translate(-185.07 -362.79)"/></g><path class="cls-15" d="M2220,2017.92l.38-.09c30.71-7.42,7.48-164.27,7.48-164.27-47.05,9.9-98.6,164.27-98.6,164.27l.73.09Z" transform="translate(-185.07 -362.79)"/><path class="cls-16" d="M2117.7,1494l-76.4,257,183.51,105.91c-78.67,22.77-107.26,101.39-139.68,175.74l-222.21-177.53,136.46-416Z" transform="translate(-185.07 -362.79)"/><path class="cls-4" d="M2375.68,2019.73l-176.9-.49-47.51-.14c-11.61-24.83-17.93-51.62,12.4-92,0,0,7.49-.71,19-1.71,26.19-2.28,73.16-6,99.62-6.19C2343.71,1918.81,2375.68,2019.73,2375.68,2019.73Z" transform="translate(-185.07 -362.79)"/><path class="cls-17" d="M2198.78,2019.24l-47.51-.14c-11.61-24.83-17.93-51.62,12.4-92,0,0,7.49-.71,19-1.71C2180.18,1941,2174.6,1991.36,2198.78,2019.24Z" transform="translate(-185.07 -362.79)"/><path class="cls-4" d="M2287.42,1919.49c1.89,0,55.17-3.13,73.35,10.66s35.1,45.76,35.1,45.76-3.13,6.89-18.18,1.88-29.46-28.21-29.46-28.21l-53.91-3.76Z" transform="translate(-185.07 -362.79)"/><path class="cls-18" d="M2353.72,2020a.58.58,0,0,1-.56-.45c-10.85-56.25-57.16-68.54-57.63-68.66a.56.56,0,1,1,.28-1.09c.47.11,47.47,12.59,58.46,69.53a.56.56,0,0,1-.44.66Z" transform="translate(-185.07 -362.79)"/><path class="cls-18" d="M2329.74,2019.63a.57.57,0,0,1-.53-.36c-9.16-23.51-51-39.83-51.42-40a.55.55,0,0,1-.32-.72.56.56,0,0,1,.73-.33c.42.16,42.72,16.66,52.06,40.64a.56.56,0,0,1-.32.73A.65.65,0,0,1,2329.74,2019.63Z" transform="translate(-185.07 -362.79)"/><path class="cls-8" d="M1968.8,1356.81c-3.83,1.18-278.89,406-195.29,533,30.34,46.09,384.76,143.41,384.76,143.41-16.58-45.86.5-103.42,69.87-179.15-6.62,0-238.94-85.7-238.94-85.7s137.19-259.46,139.4-327.82S2047.18,1332.62,1968.8,1356.81Z" transform="translate(-185.07 -362.79)"/><path class="cls-8" d="M2581.46,1140.7s260.39,160.44,282.69,201.06c27.18,49.49,3.32,126-88.56,119.92S2509,1252.06,2509,1252.06Z" transform="translate(-185.07 -362.79)"/><path class="cls-16" d="M2675.27,1408.2c-65.19-38.8-165.52-153-166.53-154.16l3.43-3c1,1.14,100.86,114.81,165.43,153.24Z" transform="translate(-185.07 -362.79)"/><path class="cls-19" d="M2868,1417c-10.24,23.42-34.78,43.43-80.36,51.06-70.67,5.36-174.1,9.73-266.13,16.31-4.32-24.7-10.33-60.33-10.33-60.33s126,34.5,234.08,30.06c48.56-2,93.49-11.85,121.74-36.22Z" transform="translate(-185.07 -362.79)"/><polygon class="cls-6" points="2334.56 860.3 2322.17 866.96 2307.82 849.08 2327.57 838.47 2334.56 860.3"/><path class="cls-6" d="M2523.3,1294a2.13,2.13,0,0,1-1.4-.53,2.1,2.1,0,0,1-.17-3c11.24-12.65-8.2-62-16.64-79.9a2.1,2.1,0,0,1,3.81-1.79c1.28,2.74,31.34,67.18,16,84.48A2.09,2.09,0,0,1,2523.3,1294Z" transform="translate(-185.07 -362.79)"/><path class="cls-6" d="M2521.33,1302.44a2.1,2.1,0,0,1-1.15-3.86l20.34-13.18a2.1,2.1,0,1,1,2.29,3.52l-20.34,13.19A2.18,2.18,0,0,1,2521.33,1302.44Z" transform="translate(-185.07 -362.79)"/><path class="cls-6" d="M2522.84,1309.25a2.1,2.1,0,0,1-1.15-3.87L2542,1292.2a2.1,2.1,0,1,1,2.29,3.53L2524,1308.91A2.08,2.08,0,0,1,2522.84,1309.25Z" transform="translate(-185.07 -362.79)"/><path class="cls-6" d="M2524.35,1316.05a2.1,2.1,0,0,1-1.14-3.87l20.33-13.18a2.1,2.1,0,1,1,2.29,3.53l-20.34,13.18A2.08,2.08,0,0,1,2524.35,1316.05Z" transform="translate(-185.07 -362.79)"/><path class="cls-6" d="M2525.86,1322.85a2.1,2.1,0,0,1-1.14-3.86l20.34-13.18a2.1,2.1,0,1,1,2.28,3.52L2527,1322.51A2.08,2.08,0,0,1,2525.86,1322.85Z" transform="translate(-185.07 -362.79)"/><path class="cls-6" d="M2527.37,1329.65a2.08,2.08,0,0,1-1.76-1,2.1,2.1,0,0,1,.62-2.9l20.34-13.18a2.1,2.1,0,1,1,2.28,3.52l-20.34,13.19A2.13,2.13,0,0,1,2527.37,1329.65Z" transform="translate(-185.07 -362.79)"/><path class="cls-6" d="M2528.89,1336.46a2.1,2.1,0,0,1-1.15-3.87l20.34-13.18a2.1,2.1,0,0,1,2.28,3.53L2530,1336.12A2.1,2.1,0,0,1,2528.89,1336.46Z" transform="translate(-185.07 -362.79)"/><path class="cls-6" d="M2530.4,1343.26a2.1,2.1,0,0,1-1.15-3.87l20.34-13.18a2.1,2.1,0,1,1,2.29,3.53l-20.34,13.18A2.08,2.08,0,0,1,2530.4,1343.26Z" transform="translate(-185.07 -362.79)"/><path class="cls-6" d="M2531.91,1350.06a2.1,2.1,0,0,1-1.15-3.86L2551.1,1333a2.1,2.1,0,0,1,2.29,3.53l-20.34,13.18A2.08,2.08,0,0,1,2531.91,1350.06Z" transform="translate(-185.07 -362.79)"/><path class="cls-6" d="M2533.42,1356.86a2.08,2.08,0,0,1-1.76-.95,2.1,2.1,0,0,1,.62-2.91l20.33-13.18a2.1,2.1,0,1,1,2.29,3.52l-20.34,13.19A2.15,2.15,0,0,1,2533.42,1356.86Z" transform="translate(-185.07 -362.79)"/><path class="cls-6" d="M2534.93,1363.67a2.1,2.1,0,0,1-1.14-3.87l20.33-13.18a2.1,2.1,0,0,1,2.29,3.53l-20.34,13.18A2.08,2.08,0,0,1,2534.93,1363.67Z" transform="translate(-185.07 -362.79)"/><path class="cls-6" d="M2536.44,1370.47a2.1,2.1,0,0,1-1.14-3.87l20.34-13.18a2.1,2.1,0,0,1,2.28,3.53l-20.34,13.18A2.05,2.05,0,0,1,2536.44,1370.47Z" transform="translate(-185.07 -362.79)"/><path class="cls-6" d="M2538,1377.27a2.1,2.1,0,0,1-1.15-3.86l20.34-13.18a2.1,2.1,0,1,1,2.28,3.52l-20.33,13.18A2.1,2.1,0,0,1,2538,1377.27Z" transform="translate(-185.07 -362.79)"/><path class="cls-6" d="M2539.47,1384.07a2.1,2.1,0,0,1-1.15-3.86l20.34-13.18a2.1,2.1,0,1,1,2.29,3.52l-20.34,13.19A2.07,2.07,0,0,1,2539.47,1384.07Z" transform="translate(-185.07 -362.79)"/><path class="cls-6" d="M2541,1390.88a2.1,2.1,0,0,1-1.15-3.87l20.34-13.18a2.1,2.1,0,1,1,2.29,3.53l-20.34,13.18A2.08,2.08,0,0,1,2541,1390.88Z" transform="translate(-185.07 -362.79)"/><path class="cls-6" d="M2542.49,1397.68a2.1,2.1,0,0,1-1.14-3.86l20.33-13.19a2.1,2.1,0,0,1,2.29,3.53l-20.34,13.18A2.08,2.08,0,0,1,2542.49,1397.68Z" transform="translate(-185.07 -362.79)"/><path class="cls-6" d="M2544,1404.48a2.1,2.1,0,0,1-1.14-3.86l20.34-13.18a2.1,2.1,0,1,1,2.28,3.52l-20.34,13.18A2.08,2.08,0,0,1,2544,1404.48Z" transform="translate(-185.07 -362.79)"/><path class="cls-6" d="M2568.77,1663.48a1.81,1.81,0,0,1-.4,0,2.1,2.1,0,0,1-1.66-2.46c23.86-122,13.18-230.85-.59-249.49-5.7-7.72-14.42-3-14.79-2.74a2.1,2.1,0,1,1-2.06-3.66c4.24-2.38,13.92-4.63,20.23,3.91,13.63,18.44,26.45,124.38,1.33,252.78A2.1,2.1,0,0,1,2568.77,1663.48Z" transform="translate(-185.07 -362.79)"/><path class="cls-20" d="M1130.08,982.25s2.07,207.64,160.12,227.27c141.52,4.13,215.82,11.85,157.94-267.8C1413,816.72,1132.15,848,1130.08,982.25Z" transform="translate(-185.07 -362.79)"/><path class="cls-11" d="M1580.5,2107.45h-571l39.3-781.76c158.13-65.7,321.25-56.17,492.39,0Z" transform="translate(-185.07 -362.79)"/><path class="cls-21" d="M1182.49,1397.69c0,6.82-21.53,307.6,59,427.73s-105.11,288-105.11,288C963,2054.75,1069.19,1352.64,1182.49,1397.69Z" transform="translate(-185.07 -362.79)"/><path class="cls-22" d="M1384.4,1311.53s-16.7,63.17-84.44,66-88.5-66-88.5-66l14.46-114,8.67-68.32h126.68l14.19,111.86Z" transform="translate(-185.07 -362.79)"/><path class="cls-23" d="M1375.46,1241.11c-61.26,10.51-116.46-14.5-149.54-43.54l8.67-68.32h126.68Z" transform="translate(-185.07 -362.79)"/><path class="cls-24" d="M1216.62,1236c0,4.38,78.84,139.28,78.84,139.28s-68.33,46.43-68.33,42.92-32.41-128.77-32.41-128.77Z" transform="translate(-185.07 -362.79)"/><path class="cls-24" d="M1379.55,1243c0,4.38-85.84,134-85.84,134s63.07,51.69,63.07,48.18,44.67-128.77,44.67-128.77Z" transform="translate(-185.07 -362.79)"/><path class="cls-8" d="M1143.08,2182.89l-199-12.48L1020.67,1776l-.11-2-6-104.35-2.41-41.56L1005.19,1508l-6.36-110L996.18,1352a573.1,573.1,0,0,1,89.77-44.46c30-11.71,64.51-22,98.65-25.26C1176.21,1673,1198,1891.35,1143.08,2182.89Z" transform="translate(-185.07 -362.79)"/><path class="cls-8" d="M1124.92,1577.72c-20.06,20.17-42.78,41.9-70,63.18-12.46,9.73-25.85,19.37-40.37,28.72-42.31,27.24-94.11,52-159.79,69.6a54.16,54.16,0,0,1-20.6,3.84c-51.08-1.15-75.29-87.46-44-162.24a167.79,167.79,0,0,1,48-65l160.69-117.91,71.75-52.65.21-.11C1146.54,1306.43,1215.53,1499.44,1124.92,1577.72Z" transform="translate(-185.07 -362.79)"/><path class="cls-16" d="M1066.7,1595.17l-11.8,45.73L1020.56,1774l-6-104.35c-42.31,27.24-94.11,52-159.79,69.6a54.16,54.16,0,0,1-20.6,3.84c-51.08-1.15-75.29-87.46-44-162.24,2.75,46.84,14.12,87.76,43.79,97,25.76,8,60.86,1.06,96-11.61,29.15-10.53,58.32-25,82.19-38.14C1044.2,1610.41,1066.7,1595.17,1066.7,1595.17Z" transform="translate(-185.07 -362.79)"/><path class="cls-8" d="M1412.59,1289.82c92.81,8.84,177.12,54.64,177.12,54.64L1565.91,1776l76.55,394.46h-261.2C1399.1,2013.4,1445.76,1659.19,1412.59,1289.82Z" transform="translate(-185.07 -362.79)"/><path class="cls-8" d="M1587.17,1343.34s114,173,133.06,453.16c5.27,77.32-169.85,345.38-169.85,345.38H1348.65l198.52-305.79s-140.58-284.69-100.55-377.55S1541.89,1321.64,1587.17,1343.34Z" transform="translate(-185.07 -362.79)"/><polygon class="cls-16" points="1168.52 1775 1165.47 1773.09 1374.34 1441.28 1307.67 1256.79 1311.06 1255.57 1378.32 1441.7 1377.85 1442.45 1168.52 1775"/><path class="cls-16" d="M1219.29,1236.1c-9.81,97-37,489-37,489-60-131.41-87-226.79-87-226.79l43.59-46.86L1069,1335.12C1117.18,1268.49,1219.29,1236.1,1219.29,1236.1Z" transform="translate(-185.07 -362.79)"/><path class="cls-16" d="M1376.32,1236.81c4.93,105.62,53.74,248.26,44.13,484.86,60-131.4,78-224.54,78-224.54l-43.59-46.85,69.91-116.37C1487.6,1278.41,1376.32,1236.81,1376.32,1236.81Z" transform="translate(-185.07 -362.79)"/><path class="cls-20" d="M1421.36,1656.44s-170.89-48.42-128.91-195.11c20.71-72.37,144-107,76.58-217.7-.29-.49-.6-1-.91-1.49l-9.19-81.52s63.81-15.12,87.32-46.18c-17.56,47,2.51,70.56,12.84,80.41,40.57,38.73,83.29,79.68,83.9,149.37C1544.15,1476.62,1409.57,1473.61,1421.36,1656.44Z" transform="translate(-185.07 -362.79)"/><path class="cls-22" d="M1429.51,1046c30.31,39.79-29.24,152.25-131,152.6-64.17-2.55-165.42-63.12-139.22-189.5C1141,903.68,1206,804,1298.56,804S1450.14,934.85,1429.51,1046Z" transform="translate(-185.07 -362.79)"/><circle class="cls-22" cx="1258.17" cy="677.65" r="30.36"/><path class="cls-20" d="M1368.35,879.73C1324.8,966.82,1165.11,1007,1165.11,1007l-25.23,3.65-7,1s-13.35-76.39,35.24-146.49S1294,801.44,1294,801.44a151.41,151.41,0,0,1,33,3.24C1355.82,810.87,1390,828.71,1368.35,879.73Z" transform="translate(-185.07 -362.79)"/><path class="cls-25" d="M1327,804.68c-52.32,7.51-102.22,24.68-139.34,63.69-33.6,35.31-44.51,108.62-47.78,142.27l-7,1s-13.35-76.39,35.24-146.49S1294,801.44,1294,801.44A151.41,151.41,0,0,1,1327,804.68Z" transform="translate(-185.07 -362.79)"/><path class="cls-20" d="M1301.79,876.93c-25.74-58.31-5.07-74.85-5.07-74.85s77.33-6.37,125.93,63.73,18.73,143.76,18.73,143.76S1324.2,1029.93,1301.79,876.93Z" transform="translate(-185.07 -362.79)"/><circle class="cls-22" cx="965.79" cy="676" r="30.36"/><path d="M1161.87,1082.81s25.14,45.22,73.93,57.35a5.11,5.11,0,0,1,3.72,6.09h0a5.11,5.11,0,0,1-6.15,3.86c-14.2-3.32-54.17-17.21-79.92-61.86Z" transform="translate(-185.07 -362.79)"/><ellipse cx="1151.69" cy="1063.44" rx="19.38" ry="26.58" transform="translate(-451.38 32.39) rotate(-17.49)"/><ellipse class="cls-8" cx="1144.52" cy="1065.69" rx="20.5" ry="28.11" transform="translate(-452.38 30.34) rotate(-17.49)"/><ellipse class="cls-26" cx="1141.25" cy="1067.59" rx="11.82" ry="16.2" transform="matrix(0.95, -0.3, 0.3, 0.95, -453.1, 29.44)"/><path d="M1168.82,1075.58l-.36,0a2.17,2.17,0,0,1-1.78-2.5c3.47-20.84-4.2-43.57-13.29-52.67-10.6-10.6-23.75-2.15-24.3-1.78a2.16,2.16,0,0,1-2.39-3.61c.16-.11,16.62-10.79,29.75,2.33,10.07,10.07,18.25,33.94,14.5,56.45A2.17,2.17,0,0,1,1168.82,1075.58Z" transform="translate(-185.07 -362.79)"/><path class="cls-27" d="M1158.08,1007.39s142.37-35.17,176.58-117.46c21.57-56.7-13.25-86.6-13.25-86.6s35.07,13.76,33.9,72.43C1353.47,967.73,1158.08,1007.39,1158.08,1007.39Z" transform="translate(-185.07 -362.79)"/><path class="cls-28" d="M1292.78,1086c-4.89,0-15.57-.57-17.16-5.48-1.89-5.85,15-51.62,18.35-60.74a1.52,1.52,0,0,1,2.85,1.06c-9.8,26.31-19.33,55.48-18.31,58.74.86,2.63,10.1,3.56,16.1,3.35h.05a1.52,1.52,0,0,1,0,3C1294.29,1086,1293.62,1086,1292.78,1086Z" transform="translate(-185.07 -362.79)"/><path class="cls-27" d="M1264.41,1130s52,5.6,95.69-19C1348.35,1159.05,1295.19,1184.23,1264.41,1130Z" transform="translate(-185.07 -362.79)"/><path d="M1223.53,1042h0a6.93,6.93,0,0,1-6.9-6.9v-13.8a6.93,6.93,0,0,1,6.9-6.9h0a6.93,6.93,0,0,1,6.9,6.9v13.8A6.93,6.93,0,0,1,1223.53,1042Z" transform="translate(-185.07 -362.79)"/><path d="M1370.21,1043.1h0a6.92,6.92,0,0,1-6.9-6.9v-13.79a6.92,6.92,0,0,1,6.9-6.9h0a6.92,6.92,0,0,1,6.9,6.9v13.79A6.92,6.92,0,0,1,1370.21,1043.1Z" transform="translate(-185.07 -362.79)"/><path class="cls-29" d="M1386.84,1058.5c0,3.18-7.74,5.76-17.28,5.76s-17.27-2.58-17.27-5.76,7.74-5.76,17.27-5.76S1386.84,1055.32,1386.84,1058.5Z" transform="translate(-185.07 -362.79)"/><path class="cls-29" d="M1241.65,1058.5c0,3.18-7.73,5.76-17.27,5.76s-17.28-2.58-17.28-5.76,7.74-5.76,17.28-5.76S1241.65,1055.32,1241.65,1058.5Z" transform="translate(-185.07 -362.79)"/><path class="cls-28" d="M1436.13,1057.12h0a1.51,1.51,0,0,1-1.51-1.52c0-1,.16-23.47,14.16-27.22a1.52,1.52,0,1,1,.78,2.93c-11.75,3.16-11.91,24.08-11.91,24.29A1.52,1.52,0,0,1,1436.13,1057.12Z" transform="translate(-185.07 -362.79)"/><polygon class="cls-22" points="833.64 1032.64 777.5 968.85 876.11 875.94 921.63 904.56 833.64 1032.64"/><path class="cls-22" d="M1058.69,1242.33c.48-5.48,20.86-103.63,19.44-101.31,20.26-25.74,64.42,6.31,66.12,47.85,0,0-18.75,70.59-43.43,85.13C1056.29,1299.93,1058.69,1242.33,1058.69,1242.33Z" transform="translate(-185.07 -362.79)"/><path class="cls-22" d="M1078.06,1140.81s36.07-99.84,37.13-99.34,10.17,2.4,8.69,17.18-25.93,96.09-25.93,96.09Z" transform="translate(-185.07 -362.79)"/><path class="cls-22" d="M1094.58,1149s53.16-89.79,54.16-89.06,10.1,4.42,5.74,19.46-38.25,81.14-38.25,81.14Z" transform="translate(-185.07 -362.79)"/><path class="cls-22" d="M1098.65,1165.35c1.6-2.87,34.7-29.18,42.23-32.61s49.27-4.14,49.27-4.14,2.12,11.81-13.85,13.28a70,70,0,0,0-27.47,8.52l-26.17,43.14Z" transform="translate(-185.07 -362.79)"/><path class="cls-22" d="M1121.7,1192.73s9.22-31.35,29.62-33.17c19.52-1.74,41.79,18.19,41.79,18.19s-.48,7-14.08,4.48-17.1-6-17.1-6l-13.9,4.11-11,32Z" transform="translate(-185.07 -362.79)"/><path class="cls-8" d="M1022,1231.22c-8.91-4.74-17.9-9.45-27.08-13.69l-151,281L796.69,1563c-60.58,98.09,20.45,237.61,157.16,109.5,25.82-24.19,33.09-55.15,33.09-55.15l38.1-94.53,62-154,49.73-67.85C1100.19,1275.08,1061.55,1252.25,1022,1231.22Z" transform="translate(-185.07 -362.79)"/><path class="cls-16" d="M952.47,1658.69l-2.89-2.13c11-14.84,19.18-31.61,27.13-47.82,1.68-3.44,3.36-6.86,5.07-10.27,10.47-20.21,19.63-39.25,28.83-60q8-18.33,15.94-36.48c17.79-40.65,34.6-79,50.9-119.22l.17-.32c12.86-19.29,26.61-38.4,39.92-56.87,5.53-7.69,11.26-15.64,16.78-23.42l2.93,2.08c-5.53,7.79-11.26,15.74-16.8,23.44-13.25,18.4-26.94,37.43-39.74,56.61-16.3,40.16-33.87,80.31-50.87,119.14q-7.95,18.15-15.94,36.49c-9.23,20.78-18.42,39.88-28.92,60.13-1.69,3.37-3.36,6.8-5,10.22C971.92,1626.68,963.63,1643.59,952.47,1658.69Z" transform="translate(-185.07 -362.79)"/></g><path class="cls-30" d="M1799.76,1871.19a244.62,244.62,0,0,1-33.83,46.43s-29.5-48.9-34.77-113.62c-4-49.65,6.18-108.61,54.9-161.94C1786.06,1642.06,1865,1753.89,1799.76,1871.19Z" transform="translate(-185.07 -362.79)"/><path class="cls-31" d="M1799.76,1871.19a244.62,244.62,0,0,1-33.83,46.43s-29.5-48.9-34.77-113.62Z" transform="translate(-185.07 -362.79)"/><path class="cls-31" d="M1765.1,1915.77c-1.69-26.57-1.75-54-.88-80.35l-23.8-29.67.83-.67,23,28.7c.78-22.47,2.23-44.09,3.93-63.63l-.4.32-24-29.91.83-.67,23.64,29.46c1-11.57,2.1-22.41,3.19-32.25,0-.1,0-.2,0-.31h0c5.56-50.07,12.14-85.58,12.2-85.93l1,.19c-.06.35-6.55,35.35-12.08,84.85l32.56-24.69.64.85-33.36,25.31c-1.81,16.37-3.64,35.52-5.07,56.24l41.15-25.08.56.91-41.8,25.47c-2.55,37.58-3.77,80.21-1.2,120.8Z" transform="translate(-185.07 -362.79)"/><path class="cls-32" d="M1810.14,1921a244.61,244.61,0,0,1-51.44,25.59s-3.62-57,21.56-116.85c19.32-45.92,55.58-93.51,123.42-118.36C1903.68,1711.41,1922.16,1847.06,1810.14,1921Z" transform="translate(-185.07 -362.79)"/><path class="cls-31" d="M1810.14,1921a244.61,244.61,0,0,1-51.44,25.59s-3.62-57,21.56-116.85Z" transform="translate(-185.07 -362.79)"/><path class="cls-31" d="M1889,1782.66l-.18-1.05-40.28,6.89c27.74-41.37,49.64-69.44,49.86-69.72l-.84-.65c-.22.28-22.44,28.75-50.47,70.62h0a2.33,2.33,0,0,1-.17.26c-5.5,8.23-11.48,17.34-17.71,27.14l-7.38-37-1,.21,7.49,37.6.51-.1c-10.52,16.56-21.78,35.08-32.84,54.65l-.8,1.43c-12.93,23-25.53,47.34-36.29,71.7l1,.43c16.44-37.21,37.19-74.47,56.79-106.63l48.83-3.32-.07-1.06-48.08,3.26c10.82-17.72,21.28-33.87,30.44-47.56Z" transform="translate(-185.07 -362.79)"/><path class="cls-32" d="M1793.68,1953.7s13.22-208.21-169.61-275.17C1624.07,1678.53,1596.38,1881.82,1793.68,1953.7Z" transform="translate(-185.07 -362.79)"/><path class="cls-31" d="M1793.54,1951.32c-12.59-28.49-27.33-57-42.45-83.87l8.69-43.65-1.22-.24-8.41,42.22c-12.93-22.9-26.11-44.56-38.42-63.93l.59.11,8.77-44-1.23-.25-8.63,43.34c-7.3-11.47-14.28-22.13-20.72-31.75l-.2-.3h0c-32.79-49-58.78-82.29-59-82.62l-1,.77c.25.33,25.87,33.16,58.33,81.56l-47.13-8.06-.21,1.23,48.29,8.26c10.72,16,23,34.91,35.62,55.64l-56.25-3.82-.09,1.24,57.13,3.88c22.93,37.63,47.2,81.22,66.43,124.75Z" transform="translate(-185.07 -362.79)"/><polygon class="cls-33" points="1674.36 1527.11 1655.93 1674.78 1519.4 1674.78 1503.32 1545.87 1500.98 1527.11 1674.36 1527.11"/><path class="cls-34" d="M1859.42,1889.91,1841,2037.57h-70.44c44.36-19.74,71.48-67.87,66.5-95.5-5.56-30.86-136.58-33.25-148.68-33.4l-2.34-18.76Z" transform="translate(-185.07 -362.79)"/><rect class="cls-33" x="1496.09" y="1526.14" width="183.16" height="16.58"/><polygon class="cls-34" points="1674.91 1675.18 1496.95 1675.18 1490.77 1662.98 1681.1 1662.98 1674.91 1675.18"/></g><g id="laptops"><path class="cls-35" d="M2507.12,1590.38l-136.73,430.28H2003.18v18.2h382.33c39.75-124.49,129.46-404.67,145.54-448.48Z" transform="translate(-185.07 -362.79)"/><polygon class="cls-36" points="2346.27 1227.59 2200.56 1676.07 2301.28 1676.07 2777.28 1676.07 2919.79 1227.59 2346.27 1227.59"/><polygon class="cls-8" points="2584.85 1517.83 2542.26 1517.83 2585.15 1376.16 2627.74 1376.16 2584.85 1517.83"/><polygon class="cls-8" points="2507.72 1468.29 2520.61 1425.69 2662.28 1425.69 2649.39 1468.29 2507.72 1468.29"/><path class="cls-35" d="M1096.83,1590.38l136.72,430.28h367.21v18.2H1218.44c-39.76-124.49-129.47-404.67-145.54-448.48Z" transform="translate(-185.07 -362.79)"/><polygon class="cls-36" points="887.54 1227.59 1033.25 1676.07 932.53 1676.07 456.53 1676.07 314.03 1227.59 887.54 1227.59"/><polygon class="cls-8" points="648.96 1517.83 691.56 1517.83 648.67 1376.16 606.07 1376.16 648.96 1517.83"/><polygon class="cls-8" points="726.1 1468.29 713.2 1425.69 571.53 1425.69 584.43 1468.29 726.1 1468.29"/></g><g id="icons"><g id="profile"><rect class="cls-37" x="293.64" y="332.35" width="454.16" height="496.91" rx="36.76"/><rect class="cls-8" x="360.54" y="398.55" width="123.15" height="134.46"/><path class="cls-38" d="M607.93,830.33a24.75,24.75,0,0,0,19.22-9.41,24.16,24.16,0,0,0,5.3-15.3,24.62,24.62,0,1,0-49.24,0,24.1,24.1,0,0,0,5.3,15.3A24.83,24.83,0,0,0,607.93,830.33Z" transform="translate(-185.07 -362.79)"/><path class="cls-38" d="M651.36,877V856.2c-7.09-25.89-83.64-24.85-87.08,0l0,20.78Z" transform="translate(-185.07 -362.79)"/><rect class="cls-39" x="513.83" y="400.85" width="167.19" height="16.91" rx="6.56"/><rect class="cls-39" x="513.83" y="446.29" width="167.19" height="16.91" rx="6.56"/><rect class="cls-39" x="513.83" y="496.34" width="167.19" height="16.91" rx="6.56"/><rect class="cls-39" x="357.87" y="581.1" width="156.81" height="16.91" rx="4.59"/><rect class="cls-39" x="357.87" y="633.99" width="156.81" height="16.91" rx="4.59"/><rect class="cls-39" x="357.87" y="686.89" width="156.81" height="16.91" rx="4.59"/><rect class="cls-39" x="357.87" y="739.78" width="156.81" height="16.91" rx="4.59"/><rect class="cls-8" x="543.85" y="575.64" width="143.08" height="184.76"/></g><g id="text_box" data-name="text box"><rect class="cls-39" x="1445.9" y="595.38" width="431.73" height="214.3" rx="25.5" transform="translate(3138.48 1042.26) rotate(180)"/><polygon class="cls-39" points="1332.1 412.25 1332.1 508.94 1430.64 410.4 1332.1 412.25"/><circle class="cls-8" cx="1609.99" cy="341.73" r="18.81"/><circle class="cls-8" cx="1546.91" cy="341.73" r="18.81"/><circle class="cls-8" cx="1483.83" cy="341.73" r="18.81"/><circle class="cls-8" cx="1420.75" cy="341.73" r="18.81"/><circle class="cls-8" cx="1357.67" cy="341.73" r="18.81"/></g><g id="text_box-2" data-name="text box"><rect class="cls-39" x="895.87" y="78.85" width="290.74" height="144.32" rx="17.17"/><polygon class="cls-39" points="1138.62 199.85 1138.62 264.96 1072.26 198.6 1138.62 199.85"/><circle class="cls-8" cx="951.49" cy="152.35" r="12.67"/><circle class="cls-8" cx="993.97" cy="152.35" r="12.67"/><circle class="cls-8" cx="1036.45" cy="152.35" r="12.67"/><circle class="cls-8" cx="1078.93" cy="152.35" r="12.67"/><circle class="cls-8" cx="1121.41" cy="152.35" r="12.67"/></g><g id="calener"><path class="cls-39" d="M2881.64,900H2724.28a41.17,41.17,0,0,0-41.12,41.12v157.36a41.17,41.17,0,0,0,41.12,41.13h157.36a41.17,41.17,0,0,0,41.12-41.13V941.1A41.17,41.17,0,0,0,2881.64,900Zm0,231.32H2724.28a32.87,32.87,0,0,1-32.83-32.84V959.19h223v139.27A32.87,32.87,0,0,1,2881.64,1131.3Z" transform="translate(-185.07 -362.79)"/><rect class="cls-39" x="2560" y="624.19" width="32.67" height="31.51"/><rect class="cls-8" x="2602.88" y="624.19" width="32.67" height="31.51"/><rect class="cls-8" x="2643.11" y="624.19" width="32.67" height="31.51"/><rect class="cls-8" x="2685.99" y="624.19" width="32.67" height="31.51"/><rect class="cls-8" x="2517.13" y="666.7" width="32.67" height="31.51"/><rect class="cls-8" x="2560" y="666.7" width="32.67" height="31.51"/><rect class="cls-8" x="2602.88" y="666.7" width="32.67" height="31.51"/><rect class="cls-8" x="2643.11" y="666.7" width="32.67" height="31.51"/><rect class="cls-8" x="2685.99" y="666.7" width="32.67" height="31.51"/><rect class="cls-8" x="2517.13" y="709.21" width="32.67" height="31.51"/><rect class="cls-8" x="2560" y="709.21" width="32.67" height="31.51"/><rect class="cls-8" x="2602.88" y="709.21" width="32.67" height="31.51"/><rect class="cls-8" x="2643.11" y="709.21" width="32.67" height="31.51"/></g><g id="bag"><circle class="cls-40" cx="1590.48" cy="749.28" r="141.06"/></g><path class="cls-8" d="M1717.13,1034.77l-2.9,2.91-.38-.38-30.48,30.47,37,37,16.49-16.48a533.43,533.43,0,0,1,59.37,59.28l-16.53,16.53,37,37,6.1-6.11a4.13,4.13,0,0,1-.71,1l28.11-28.11C1865,1153,1732,1020,1717.13,1034.77Z" transform="translate(-185.07 -362.79)"/><g id="_" data-name="+"><circle class="cls-40" cx="2405" cy="412.4" r="75.73"/></g><polygon class="cls-8" points="2451.26 427.01 2395.66 427.01 2395.66 358.83 2406.17 358.83 2406.17 416.51 2451.26 416.51 2451.26 427.01"/><g id="_2" data-name="+"><circle class="cls-40" cx="1992.36" cy="138.47" r="71.73"/></g><path class="cls-8" d="M2167.42,514.86v-1.93c0-6.71,2.74-11.79,10.26-18.5,4.17-3.76,5.49-6.8,5.49-10.36,0-3.86-2.24-7-7.11-7-5.8,0-7.73,4-8.24,8.84h-14.33c.51-8.54,5.9-20.13,22.77-20,16.67,0,21.54,10.77,21.54,18.7,0,6.4-2,10.77-9.35,17.58-4.37,4.06-5.79,7.42-5.79,11.58v1.12Zm0,22.06V520h15.24v16.88Z" transform="translate(-185.07 -362.79)"/></g></svg>