<?xml version="1.0" encoding="utf-8"?>
<!-- Generator: Adobe Illustrator 26.0.0, SVG Export Plug-In . SVG Version: 6.00 Build 0)  -->
<svg version="1.1" id="Layer_1" xmlns="http://www.w3.org/2000/svg" xmlns:xlink="http://www.w3.org/1999/xlink" x="0px" y="0px"
	 viewBox="0 0 19.7 18.6" style="enable-background:new 0 0 19.7 18.6;" xml:space="preserve">
<style type="text/css">
	.st0{fill:#878AA1;}
	.st1{fill:#FFFFFF;}
</style>
<path class="st0" d="M2.7,1.5c-0.3,0-0.5,0.3-0.6,0.6v13.8c0,0.3,0.2,0.6,0.5,0.6L9,17.6c0.2,0,0.4,0,0.5-0.1
	c0.1-0.1,0.2-0.3,0.2-0.5V1.5c0-0.2-0.1-0.3-0.2-0.4C9.4,1,9.2,0.9,9,0.9L2.7,1.5z M8,10.1c-0.3,0-0.5-0.4-0.5-0.8S7.8,8.5,8,8.5
	s0.5,0.4,0.5,0.8S8.3,10.1,8,10.1z"/>
<polygon class="st0" points="18.9,9 14,5.3 14,7.2 10.1,7.2 10.1,10.7 14,10.7 14,12.6 "/>
<path class="st1" d="M7.5,9.3c0,0.5,0.2,0.8,0.5,0.8s0.5-0.4,0.5-0.8S8.3,8.5,8,8.5S7.5,8.8,7.5,9.3z"/>
<path class="st0" d="M13.5,6.7V1.9c0-0.1-0.1-0.2-0.1-0.3c-0.1-0.1-0.2-0.1-0.3-0.1h-3v0.9h2.5v4.3H13.5z"/>
<path class="st0" d="M10.1,16.1v0.9h3c0.1,0,0.2-0.1,0.3-0.2c0.1-0.1,0.1-0.2,0.1-0.3v-5.4h-0.9v4.9L10.1,16.1z"/>
</svg>
